<svg width="90" height="28" viewBox="0 0 90 28" fill="none" xmlns="http://www.w3.org/2000/svg">
<g clip-path="url(#clip0)">
<path d="M25.7996 19.8443C25.6584 19.5031 25.526 19.1443 25.3849 18.8381L24.7319 17.3768L24.7054 17.3506C22.7643 13.1506 20.6907 8.88059 18.4937 4.68059L18.4054 4.50559C18.1849 4.09434 17.9643 3.63934 17.7349 3.21934C17.4525 2.72059 17.179 2.18684 16.729 1.67934C16.2903 1.14833 15.7383 0.720506 15.1127 0.426739C14.4871 0.132972 13.8035 -0.0194092 13.1113 -0.0194092C12.4191 -0.0194092 11.7356 0.132972 11.11 0.426739C10.4844 0.720506 9.93232 1.14833 9.49368 1.67934C9.07898 2.18684 8.77015 2.72059 8.4878 3.21934C8.26721 3.67434 8.04663 4.12059 7.81721 4.53184L7.72898 4.70684C5.56721 8.90684 3.45839 13.1768 1.51721 17.3768L1.46427 17.4293C1.27016 17.8843 1.04074 18.3568 0.820155 18.8643C0.678979 19.1706 0.537802 19.5031 0.396626 19.8706C0.0154782 20.8329 -0.106234 21.8771 0.0434838 22.9003C0.193202 23.9234 0.609183 24.8903 1.25043 25.7054C1.89168 26.5206 2.73606 27.1561 3.70035 27.5491C4.66465 27.9421 5.71558 28.0792 6.74957 27.9468C7.74086 27.8174 8.6954 27.49 9.55545 26.9843C10.7025 26.3456 11.8054 25.4181 13.0407 24.0793C14.276 25.4181 15.4054 26.3456 16.526 26.9931C17.6037 27.6203 18.824 27.9665 20.0731 27.9993C21.5196 28.0053 22.9194 27.4921 24.0141 26.5545C25.1088 25.6168 25.8245 24.3181 26.029 22.8981C26.2653 21.8776 26.1853 20.8102 25.7996 19.8356V19.8443ZM13.129 21.2968C11.6113 19.3718 10.6231 17.6043 10.2878 16.0906C10.1489 15.5297 10.1189 14.9476 10.1996 14.3756C10.2613 13.9293 10.429 13.5356 10.6584 13.2031C11.1878 12.4418 12.1143 11.9693 13.129 11.9693C13.6109 11.9547 14.0889 12.059 14.5201 12.2728C14.9513 12.4866 15.3222 12.8033 15.5996 13.1943C15.829 13.5443 15.9966 13.9293 16.0496 14.3756C16.1378 14.8831 16.1025 15.4693 15.9613 16.0906C15.626 17.5781 14.6378 19.3631 13.129 21.2968ZM24.3702 22.5918C24.2699 23.3128 23.9809 23.9951 23.5319 24.5708C23.083 25.1465 22.4898 25.5955 21.8113 25.8731C21.1407 26.1531 20.3996 26.2318 19.676 26.1531C18.9702 26.0656 18.2643 25.8381 17.5407 25.4181C16.3394 24.6818 15.2592 23.767 14.3378 22.7056C16.1907 20.4306 17.3113 18.3568 17.7349 16.5106C17.9378 15.6356 17.9643 14.8481 17.876 14.1218C17.7659 13.4335 17.507 12.7768 17.1172 12.1968C16.6722 11.5679 16.0781 11.0571 15.3873 10.7092C14.6965 10.3614 13.9301 10.1871 13.1554 10.2018C11.5231 10.2018 10.0672 10.9543 9.18486 12.1881C8.78766 12.7666 8.53096 13.4285 8.43486 14.1218C8.32016 14.8568 8.34663 15.6706 8.57604 16.5106C8.99957 18.3568 10.1466 20.4568 11.9731 22.7231C11.0673 23.8047 9.98459 24.7276 8.77015 25.4531C8.0378 25.8731 7.34074 26.0918 6.63486 26.1793C5.53711 26.3188 4.42823 26.0229 3.54924 25.3561C2.67025 24.6892 2.0922 23.7053 1.94074 22.6181C1.85251 21.9181 1.91427 21.2181 2.19663 20.4306C2.28486 20.1506 2.41721 19.8706 2.55839 19.5381C2.75251 19.0831 2.98192 18.6106 3.20251 18.1381L3.2378 18.0768C5.14368 13.9031 7.22604 9.64184 9.3878 5.46809L9.47604 5.29309C9.69663 4.87309 9.91721 4.42684 10.1466 4.00684C10.376 3.56059 10.6231 3.13184 10.9407 2.78184C11.2157 2.45636 11.5593 2.1946 11.9472 2.01501C12.3352 1.83541 12.7582 1.74233 13.1863 1.74233C13.6145 1.74233 14.0375 1.83541 14.4254 2.01501C14.8134 2.1946 15.157 2.45636 15.4319 2.78184C15.7407 3.13184 15.9966 3.56059 16.226 4.00684C16.4466 4.42684 16.6672 4.88184 16.8966 5.29309L16.9849 5.46809C19.1378 9.64184 21.2202 13.9031 23.1613 18.0768L23.1878 18.1031C23.4172 18.5581 23.6113 19.0656 23.8319 19.5031C23.9731 19.8443 24.1143 20.1156 24.2025 20.4043C24.3702 21.1918 24.4584 21.8918 24.3702 22.5918V22.5918ZM36.6525 21.1043C35.9876 21.114 35.3291 20.9751 34.7257 20.6979C34.1224 20.4207 33.5897 20.0123 33.1672 19.5031C32.2179 18.4181 31.714 17.019 31.7554 15.5831C31.7409 14.1159 32.261 12.6928 33.2202 11.5756C33.6638 11.0599 34.2161 10.6469 34.838 10.3657C35.46 10.0845 36.1366 9.94197 36.8202 9.94809C37.4633 9.93063 38.1004 10.0757 38.6715 10.3696C39.2426 10.6634 39.729 11.0965 40.0849 11.6281L40.1731 10.2543H42.7496V20.8243H40.1643L40.076 19.2843C39.7091 19.8519 39.202 20.3171 38.6028 20.6356C38.0036 20.9541 37.3323 21.1155 36.6525 21.1043V21.1043ZM37.3231 18.5843C37.8349 18.5843 38.2849 18.4443 38.7084 18.1906C39.0966 17.9106 39.4143 17.5431 39.6613 17.0968C39.8819 16.6506 39.9966 16.1168 39.9966 15.5218C40.031 15.0051 39.9296 14.4883 39.7022 14.022C39.4749 13.5558 39.1294 13.156 38.6996 12.8618C38.2866 12.6067 37.8097 12.4714 37.3231 12.4714C36.8365 12.4714 36.3596 12.6067 35.9466 12.8618C35.5584 13.1418 35.2407 13.5093 34.9937 13.9556C34.7603 14.4477 34.6456 14.9869 34.6584 15.5306C34.624 16.0474 34.7254 16.5642 34.9528 17.0304C35.1801 17.4967 35.5256 17.8964 35.9554 18.1906C36.3702 18.4443 36.8202 18.5843 37.3231 18.5843ZM47.1613 7.40184C47.1613 7.70809 47.1084 7.98809 46.9672 8.21559C46.826 8.43434 46.6319 8.63559 46.376 8.77559C46.1202 8.91559 45.8466 8.96809 45.5643 8.96809C45.2819 8.96809 44.9996 8.91559 44.7437 8.77559C44.5017 8.64199 44.2982 8.44921 44.1525 8.21559C44.0159 7.96633 43.9488 7.6854 43.9584 7.40184C43.9584 7.08684 44.0202 6.80684 44.1525 6.58809C44.2937 6.32559 44.4966 6.16809 44.7437 6.02809C44.9996 5.88809 45.2731 5.82684 45.5643 5.82684C45.8451 5.82042 46.1229 5.88639 46.3703 6.01829C46.6178 6.15019 46.8265 6.3435 46.976 6.57934C47.1044 6.83445 47.1681 7.1168 47.1613 7.40184V7.40184ZM44.1613 20.7893V10.2368H46.9672V20.8068H44.1525L44.1613 20.7893ZM54.4672 13.0018V13.0368C54.3349 12.9756 54.1584 12.9493 54.026 12.9231C53.8496 12.8881 53.7084 12.8881 53.5407 12.8881C52.7554 12.8881 52.1643 13.1156 51.776 13.5881C51.3525 14.0693 51.1584 14.7431 51.1584 15.6093V20.7981H48.3437V10.2281H50.929L51.0172 11.8293C51.2996 11.2693 51.6349 10.8493 52.1113 10.5343C52.5853 10.2283 53.1432 10.0754 53.7084 10.0968C53.9113 10.0968 54.1054 10.1143 54.2731 10.1493C54.3613 10.1756 54.4143 10.1756 54.4672 10.2018V13.0018V13.0018ZM55.5966 20.7893V5.89684H58.4025V11.5843C58.7996 11.0768 59.2496 10.6831 59.8143 10.3768C60.7083 9.94217 61.7239 9.81887 62.6972 10.0268C63.6705 10.2348 64.5448 10.7619 65.179 11.5231C66.1304 12.6104 66.6344 14.0129 66.5907 15.4518C66.6053 16.919 66.0851 18.3421 65.126 19.4593C64.6824 19.975 64.1301 20.388 63.5081 20.6692C62.8862 20.9504 62.2096 21.093 61.526 21.0868C60.8829 21.1043 60.2458 20.9593 59.6747 20.6654C59.1036 20.3715 58.6172 19.9384 58.2613 19.4068L58.1731 20.7806L55.5966 20.8068V20.7893ZM61.0231 18.5843C61.526 18.5843 61.976 18.4443 62.3996 18.1906C62.7878 17.9106 63.1055 17.5431 63.3525 17.0968C63.5819 16.6506 63.6878 16.1168 63.6878 15.5218C63.6878 14.9356 63.5819 14.4018 63.3525 13.9556C63.1208 13.5253 62.7952 13.1516 62.3996 12.8618C61.9866 12.6067 61.5097 12.4714 61.0231 12.4714C60.5365 12.4714 60.0596 12.6067 59.6466 12.8618C59.2496 13.1418 58.9407 13.5093 58.6849 13.9556C58.4515 14.4477 58.3367 14.9869 58.3496 15.5306C58.3152 16.0474 58.4166 16.5642 58.644 17.0304C58.8713 17.4967 59.2168 17.8964 59.6466 18.1906C60.0613 18.4443 60.5113 18.5843 61.0231 18.5843ZM67.6496 20.7981V10.2281H70.2349L70.3231 11.6018C70.648 11.0753 71.1088 10.6443 71.658 10.3536C72.2071 10.0628 72.8246 9.92283 73.4466 9.94809C74.1579 9.93591 74.857 10.1319 75.4565 10.5117C76.056 10.8914 76.5293 11.438 76.8172 12.0831C77.126 12.7481 77.2937 13.5706 77.2937 14.4893V20.8243H74.479V14.8568C74.479 14.1218 74.3113 13.5443 73.976 13.1156C73.6407 12.6956 73.1819 12.4681 72.5996 12.4681C72.176 12.4681 71.8054 12.5556 71.479 12.7481C71.1702 12.9493 70.9143 13.2031 70.7202 13.5618C70.5239 13.9245 70.4266 14.3317 70.4378 14.7431V20.7981H67.6496V20.7981ZM78.6966 20.7981V5.88809H81.5113V11.5756C81.8926 11.0653 82.3885 10.6501 82.9598 10.363C83.5311 10.0759 84.1621 9.92489 84.8025 9.92184C85.4674 9.91219 86.1259 10.0511 86.7293 10.3283C87.3326 10.6055 87.8653 11.0139 88.2878 11.5231C89.2325 12.6103 89.7329 14.0086 89.6907 15.4431C89.7061 16.9104 89.1858 18.3338 88.226 19.4506C87.7824 19.9663 87.2301 20.3793 86.6081 20.6605C85.9862 20.9417 85.3096 21.0842 84.626 21.0781C83.9829 21.0955 83.3458 20.9505 82.7747 20.6566C82.2036 20.3627 81.7172 19.9297 81.3613 19.3981L81.2819 20.7718L78.6966 20.7981V20.7981ZM84.1496 18.5843C84.6613 18.5843 85.1113 18.4443 85.526 18.1906C85.9231 17.9106 86.2319 17.5431 86.4878 17.0968C86.7084 16.6506 86.8231 16.1168 86.8231 15.5218C86.8575 15.0051 86.7561 14.4883 86.5287 14.022C86.3013 13.5558 85.9559 13.156 85.526 12.8618C85.113 12.6067 84.6362 12.4714 84.1496 12.4714C83.663 12.4714 83.1861 12.6067 82.7731 12.8618C82.3849 13.1418 82.0672 13.5093 81.8202 13.9556C81.5739 14.4433 81.4584 14.9857 81.4849 15.5306C81.4505 16.0474 81.5519 16.5642 81.7793 17.0304C82.0066 17.4967 82.3521 17.8964 82.7819 18.1906C83.1966 18.4443 83.6202 18.5843 84.1496 18.5843Z" fill="#FF385C"/>
</g>
<defs>
<clipPath id="clip0">
<rect width="90" height="28" fill="white"/>
</clipPath>
</defs>
</svg>
