<svg width="32" height="32" viewBox="0 0 32 32" fill="none" xmlns="http://www.w3.org/2000/svg">
<path opacity="0.1" fill-rule="evenodd" clip-rule="evenodd" d="M0 16C0 7.16344 7.16344 0 16 0C24.8366 0 32 7.16344 32 16C32 24.8366 24.8366 32 16 32C7.16344 32 0 24.8366 0 16Z" fill="#0B0D17"/>
<path fill-rule="evenodd" clip-rule="evenodd" d="M18.3722 12.4466H22.8917V11.1517H18.3722V12.4466ZM19.4429 15.2719C19.1549 15.5649 18.9733 15.9619 18.899 16.4628H22.4141C22.377 15.9282 22.1943 15.5243 21.8712 15.2462C21.5441 14.97 21.1417 14.8324 20.6601 14.8324C20.1383 14.8324 19.7309 14.9789 19.4429 15.2719ZM22.4933 13.5336C23.0382 13.7731 23.4867 14.1533 23.84 14.672C24.1621 15.1294 24.3688 15.66 24.4631 16.2628C24.5183 16.6153 24.5404 17.1261 24.5313 17.7903H18.8488C18.8829 18.5615 19.1518 19.103 19.6656 19.4129C19.9767 19.6059 20.351 19.7029 20.7905 19.7029C21.2531 19.7029 21.6314 19.5851 21.9214 19.3505C22.0809 19.2228 22.2214 19.0466 22.3418 18.8209H24.424C24.3688 19.2762 24.1159 19.7405 23.6684 20.2117C22.97 20.9591 21.9916 21.3333 20.7343 21.3333C19.6957 21.3333 18.7796 21.0185 17.9878 20.387C17.1921 19.7564 16.7967 18.7288 16.7967 17.3072C16.7967 15.9738 17.155 14.9512 17.8704 14.2394C18.5879 13.5296 19.5161 13.1722 20.659 13.1722C21.3384 13.1722 21.9495 13.293 22.4933 13.5336ZM9.56887 16.4905V19.2653H12.1297C12.5872 19.2653 12.9445 19.204 13.1984 19.0822C13.6609 18.8545 13.8917 18.4229 13.8917 17.7834C13.8917 17.2409 13.669 16.8697 13.2204 16.6667C12.9696 16.5539 12.6174 16.4945 12.1658 16.4905H9.56887ZM9.56887 12.4733V14.769H12.1337C12.5903 14.769 12.9625 14.6829 13.2495 14.5106C13.5345 14.3384 13.678 14.0335 13.678 13.5979C13.678 13.1118 13.4894 12.7921 13.1121 12.6357C12.7849 12.5278 12.3695 12.4733 11.8648 12.4733H9.56887ZM15.2966 11.7754C15.6187 12.2179 15.7803 12.7466 15.7803 13.3633C15.7803 13.9979 15.6187 14.5097 15.2926 14.8957C15.11 15.1115 14.842 15.3095 14.4878 15.4877C15.0257 15.6818 15.4311 15.9876 15.707 16.4064C15.9799 16.8241 16.1174 17.333 16.1174 17.9309C16.1174 18.5476 15.9609 19.101 15.6468 19.5901C15.4481 19.9138 15.1993 20.187 14.9002 20.4087C14.5641 20.6632 14.1677 20.8364 13.7091 20.9314C13.2506 21.0255 12.7549 21.071 12.219 21.071H7.46666V10.6667H12.5632C13.8496 10.6855 14.7597 11.0547 15.2966 11.7754Z" fill="#969BAB"/>
</svg>
