<svg xmlns="http://www.w3.org/2000/svg" width="50" height="50" fill="none" xmlns:v="https://vecta.io/nano"><rect width="50" height="50" rx="19" fill="#4dadf7"/><path d="M30.57 18.43h.857c.16 0 .286-.125.286-.286v-.572c0-.16-.125-.286-.286-.286H18.286c-.16 0-.286.125-.286.286v.572c0 .16.125.286.286.286h.857c0 3.303 1.58 5.696 3.33 6.857-1.75 1.16-3.33 3.554-3.33 6.857h-.857c-.16 0-.286.125-.286.286V33c0 .16.125.286.286.286H31.43c.16 0 .286-.125.286-.286v-.57c0-.16-.125-.286-.286-.286h-.857c0-3.304-1.58-5.696-3.33-6.857 1.75-1.16 3.33-3.554 3.33-6.857zm-1.143 0c0 1.303-.295 2.455-.76 3.428h-7.625c-.464-.973-.76-2.125-.76-3.428h9.143zm-.51 10.857h-8.125c.66-1.723 1.848-2.946 3.036-3.43h2.053c1.188.482 2.375 1.705 3.036 3.43z" fill="#fff"/></svg>