<svg xmlns="http://www.w3.org/2000/svg" width="50" height="50" fill="none" xmlns:v="https://vecta.io/nano"><rect width="50" height="50" rx="19" fill="#fab005"/><path d="M25.482 23.643l1.17.545 1.74-.518v-1.214c0-2.062-1.74-3.714-3.822-3.714-2.07 0-3.82 1.643-3.82 3.688v5.536a.91.91 0 1 1-1.821 0v-2.34H16V28a3.83 3.83 0 0 0 3.83 3.83c2.098 0 3.83-1.687 3.83-3.777V22.59c0-.5.41-.91.91-.91s.91.41.91.91v1.054zm4.732 1.982v2.455c0 .5-.41.902-.91.902s-.91-.402-.91-.902v-2.41l-1.74.518-1.17-.545v2.393c0 2.098 1.723 3.795 3.83 3.795a3.83 3.83 0 0 0 3.83-3.83v-2.375h-2.93z" fill="#fff"/></svg>