<svg xmlns="http://www.w3.org/2000/svg" width="50" height="50" fill="none" xmlns:v="https://vecta.io/nano"><rect width="50" height="50" rx="19" fill="#7752be"/><path d="M29.116 26.598l-9.143-9.143c-.107-.116-.25-.17-.402-.17-.07 0-.152.018-.214.045-.214.09-.357.295-.357.527v13.43c0 .232.143.438.357.527.063.027.143.045.214.045a.57.57 0 0 0 .402-.17l2.786-2.786 1.705 4.036c.125.286.455.43.75.304l1.58-.67c.286-.125.43-.455.304-.75l-1.795-4.25h3.41c.232 0 .438-.143.527-.357a.55.55 0 0 0-.125-.616z" fill="#fff"/></svg>