<svg xmlns="http://www.w3.org/2000/svg" width="605" height="495" fill="none" xmlns:v="https://vecta.io/nano"><style><![CDATA[.B{fill:#ff7b5b}.C{fill:#775298}.D{fill:#ffc6b2}.E{fill:#fff}.F{fill:#22343d}.G{fill:#ffb2a0}.H{fill-rule:evenodd}.I{fill:#ffa192}]]></style><ellipse rx="233.5" ry="219" transform="matrix(-1 0 0 1 286.5 247.999)" fill="#ffe5d2"/><g class="H"><path d="M482 343.693c.1-.06.73.77 1.66 2.405.933 1.628 2.094 4.102 3.173 7.293 2.212 6.36 3.6 15.75 2.777 26-.816 10.24-3.183 19.227-5 25.624-1.868 6.4-3.243 10.286-3.48 10.22-.262-.072.666-4.092 2.2-10.555 1.494-6.462 3.625-15.402 4.423-25.43s-.34-19.152-2.174-25.46c-1.783-6.34-3.862-9.933-3.568-10.086m6.3-51.244c.117-.052.877 1.34 2.146 3.905s3.048 6.305 5.155 10.97c4.18 9.33 9.804 22.394 13.883 37.558 2.006 7.586 3.373 14.96 4.065 21.733.698 6.77.77 12.923.42 18.058-.338 5.137-.987 9.26-1.6 12.062-.617 2.808-1.106 4.32-1.217 4.296-.346-.066 1.182-6.25 1.506-16.42.403-10.15-.93-24.252-4.972-39.246-4.033-15-9.428-28.07-13.3-37.516l-4.605-11.198c-1.063-2.656-1.6-4.15-1.48-4.203m-233.457 60.145c.216.233-1.907 2.258-4.662 6.018l-2.12 3.157c-.76 1.136-1.422 2.44-2.158 3.787-1.368 2.744-2.666 5.863-3.668 9.26-.958 3.408-1.516 6.74-1.817 9.792l-.187 4.352c-.038 1.37.04 2.64.117 3.804l.748 7.575c-.186.064-1.375-2.683-2.064-7.44l-.353-3.906c-.106-1.412-.03-2.922.018-4.512.215-3.17.744-6.646 1.74-10.183a50.12 50.12 0 0 1 3.943-9.549c.804-1.374 1.54-2.693 2.383-3.83.776-1.18 1.605-2.203 2.377-3.122 3.113-3.66 5.58-5.353 5.704-5.2m4.98 16.403c.157.25-1.026 1.156-2.57 2.886-.782.855-1.607 1.963-2.417 3.246a25.21 25.21 0 0 0-2.106 4.455c-.558 1.66-.895 3.297-1.087 4.806-.154 1.5-.188 2.9-.098 4.045.15 2.314.524 3.757.245 3.858-.2.085-1.042-1.236-1.557-3.682-.27-1.22-.38-2.713-.3-4.367.1-1.65.425-3.457 1.037-5.27.637-1.805 1.503-3.423 2.434-4.8.963-1.347 1.972-2.453 2.934-3.248 1.913-1.6 3.4-2.13 3.496-1.94m-69.182-152.892c.096-.085.934.74 2.372 2.312a36.11 36.11 0 0 1 2.506 2.967l3.073 4.126 1.686 2.476 1.693 2.773c1.2 1.902 2.274 4.05 3.443 6.3 2.208 4.544 4.318 9.702 6 15.292 1.627 5.608 2.66 11.086 3.277 16.1.236 2.516.5 4.904.527 7.15.03 1.123.102 2.205.086 3.248l-.07 2.994c-.006 1.9-.214 3.627-.337 5.136a33.65 33.65 0 0 1-.492 3.85c-.35 2.103-.606 3.25-.734 3.232-.33-.043.3-4.702.24-12.23l-.05-2.952c-.022-1.026-.13-2.092-.192-3.194-.093-2.2-.412-4.552-.7-7.02-.7-4.915-1.764-10.277-3.36-15.78-1.652-5.487-3.672-10.567-5.756-15.075-1.108-2.22-2.115-4.36-3.236-6.265-.55-.96-1.037-1.912-1.575-2.786l-1.562-2.505c-4.048-6.35-7.103-9.92-6.848-10.137m21.2 8.76c.16-.142 2.3 1.87 5.044 5.746 1.376 1.93 2.826 4.362 4.238 7.166a64.12 64.12 0 0 1 3.722 9.505c1.013 3.484 1.656 6.888 2.04 10.003.338 3.122.443 5.95.335 8.32-.2 4.74-.902 7.597-1.112 7.564-.3-.037-.06-2.93-.212-7.565-.06-2.317-.3-5.068-.72-8.093-.467-3.02-1.143-6.312-2.124-9.697-1.015-3.375-2.238-6.506-3.486-9.294-1.3-2.77-2.585-5.208-3.792-7.188-2.4-3.974-4.164-6.27-3.932-6.466" class="E"/><path d="M137.61 378.076l-1.63-3.328-45.37 34.666 19.793 32.065 45.163-38.08-17.957-25.324z" class="B"/><path d="M92.513 410.155l17.388 30.07 1.112-.496-15.485-28.116-3.016-1.458z" fill="#d7d4d4"/><path d="M136.714 377.417l-44.2 32.737s.185.703 1.282 1.137 1.733.323 1.733.323L142 379.808s-2.68-.622-3.65-1.347-1.634-1.044-1.634-1.044" fill="#f5f3f3"/><path d="M143.135 378.525l-48.437 32.353 15.732 29.815 2.534 4.13 48.438-35.85-8.165-12.212c-3.063-4.597-9.076-15.44-9.403-16.135s-.7-2.1-.7-2.1" class="B"/><path d="M542.58 155.165l1.368-2.794 38.098 29.1-16.62 26.927L527.5 176.43l15.08-21.266z" class="C"/><path d="M580.45 182.103l-14.6 25.25-.935-.416 13.003-23.6 2.532-1.225z" fill="#d7d4d4"/><path d="M543.333 154.61l37.117 27.49s-.156.6-1.076.954-1.457.27-1.457.27l-39.022-26.707s2.25-.522 3.066-1.133 1.372-.876 1.372-.876" fill="#f5f3f3"/><path d="M537.94 155.543l40.674 27.167-13.21 25.037-2.13 3.467L522.6 181.11l6.856-10.255c2.574-3.86 7.623-12.966 7.897-13.55s.587-1.762.587-1.762" class="C"/><path d="M83.445 102.772s-2.877 2-1.44 5.3 7.745 13.166 16.264 12.833c.35-.012-10.732-18.143-10.732-18.143h-4.093z" class="B"/><path d="M70.413 284.293s-10.653-9.516-14.064-7.812c-4.167 2.084-28.017 25.452-27.085 36.46.383 4.5 5.632.646 14.985-9.056s21.136-5.543 21.136-5.543l5.028-14.05zm25.883 16.05l-12.86-7.716S50.1 323.88 55.308 328.046c3.95 3.16 6.272.326 15.626-9.376s21.204-4.122 21.204-4.122l4.157-14.205z" class="C"/><path d="M174.854 197.525l2.412 34.246-53.535-13.947 51.123-20.3z" fill="#f3a683"/><path d="M123.73 219.002s46.828 2.952 53.063.87c0 0 9.15 89.903-7.132 99.602s-52.827-4.503-52.827-4.503l9.867-19.402 21.273-1.385V259.54l-1.526.346-22.718-40.884z" fill="#112129"/><path d="M65.032 280.326s-11.778 4.85-7.967 16.63c0 0 40.207 31.528 59.77 24.25 10.96-4.075 22.735-35.173 30.972-61.742l28.987-39.593-18.232.666c-8.717-.032-34.83-1.537-34.83-1.537s-13.64 71.373-18.502 73.104-40.198-11.78-40.198-11.78" class="F"/><path d="M134.644 129.486s28.064-26.33 32.913-33.262 15.247-30.14 28.062-39.842l-6.235-13.166s3.812-2.078 6.235 3.464c0 0 9.007-18.014 11.086-17.67s-4.156 13.86-4.156 13.86 8.664-12.474 11.088-12.126-6.237 14.022-6.237 14.022 9.7-11.25 11.086-9.864-7.622 9.864-7.622 9.864 9.7-5.57 10.74-3.734-9.7 6.688-9.7 6.688-1.04 7.97-7.62 11.432c0 0-13.034 35.213-24.814 46.646l-37.84 39.33-6.984-15.64zm-33.5 13.647s-26.6 27.817-33.565 32.6-30.283 14.963-40.102 27.7l-13.107-6.36s-2.113 3.8 3.407 6.267c0 0-18.1 8.84-17.77 10.923s13.896-4.028 13.896-4.028S1.347 218.773 1.67 221.2s14.08-6.106 14.08-6.106-11.34 9.594-9.966 10.992 9.935-7.527 9.935-7.527-5.66 9.648-3.832 10.704 6.776-9.638 6.776-9.638 7.977-.962 11.505-7.514c0 0 33.353-13.27 44.897-24.943l41.505-29.4-15.426-14.625z" class="D"/><g class="E"><path d="M111.112 132.046l-13.45 13.166 3.41 14.842s13.25 31.81 15.253 39.57c3.113 12.068-1.923 30.467-1.923 30.467s22.463-1.865 42.902-2.557 27.124-7.278 27.124-7.278-17.72-59.022-29.956-75.52-16.686-21.66-16.686-21.66l-18.015 3.938-8.66 5.032z"/><path d="M150.582 142.8l14.013-8.954s2.14-9.593-14.758-20.908l-19.816 12.418 20.56 17.444zm-50.085 1.38c-7.682 1.078-21.72 20.55-23.287 20.512 0 0 9.88 16.124 17.707 16.647 0 0 34.443-41.207 5.58-37.16"/></g><g class="D"><path d="M127.616 131.502s-11.167-8.343-10.78-11.67c.098-.838 1.646-2.198 2.048-3.406 2.165-6.495-8.274-23.233-14.688-26.76-5.045-2.774-2.834-3.02-13.453 3.29s-4.57 17.223.173 22.867c4.483 5.334 9.618 7.62 14.237 8.005l6.568 14.59 15.895-6.916z"/><path d="M107.466 143.084c-2.112-5.18 1.887-11.706 8.934-14.58s14.47-1.006 16.587 4.172c2.1 5.18-4.98 12.966-8.94 14.58s-14.47 1.006-16.582-4.172m-16.548-27.26s-3.622-.2-4.024 2.213 6.64 2.414 9.255.603l-5.23-2.816z"/></g><path d="M92.728 118.037c-.688-4.362-5.336-7.605-5.104-11.855 2.228.018 3.66-2.742 2.645-5.1-.4-.927-1.075-1.72-1.507-2.634s-.545-2.11.116-2.626c.313-.244.737-.286 1.143-.327 3.303-.34 8.962.65 12-.476 2.895-1.072 5.996-3.16 5.695-6.704-.263-3.088-3-5.59-5.494-7.482-1.435-1.085-5.535-3.92-7.082-3.663-2.36.392-2.934 3.543-3.104 6.18-1.65-1.572-4.088-1.32-5.524-.04s-2.116 3.313-2.742 5.275-1.3 4.002-2.708 5.306c-1.32 1.215-3.41 2.135-3.135 4.202.326 2.464 3.544 3.34 5.032 5.44-.367-.515-.677 2.774-.466 3.332.635 1.68 2.22 2.792 3.366 4.077 2.44 2.74 3.634 5.496 6.868 7.095" class="B"/><path d="M112.96 108.063l-8.252 4.268s9.912 7.195 8.252-4.268" class="E"/><path d="M101.608 109.755c.45.856-.216 2.093-1.5 2.764s-2.672.52-3.123-.336.217-2.1 1.5-2.763 2.672-.52 3.123.335m12.05-8.23c.452.856-.216 2.093-1.5 2.764s-2.672.52-3.123-.336.216-2.093 1.5-2.763 2.672-.52 3.123.335" class="G"/><path d="M107.2 107.76c-.038-.048.116-.25.473-.51.34-.263.933-.546 1.373-1.02.437-.46.593-1.417-.074-1.552-.694-.236-1.482.56-2.385 1.316l-.664.55c-.204.188-.635.464-1.082.408-.85-.138-1.214-.706-1.54-1.086a7.51 7.51 0 0 1-1.28-2.479c-.443-1.537-.244-2.53-.138-2.52.148-.006.197.947.76 2.3a8.26 8.26 0 0 0 1.325 2.156c.3.365.68.706.95.717.114.005.202-.033.415-.212l.655-.55 1.37-1.086c.506-.34 1.227-.556 1.873-.337.69.18 1.094.985.974 1.544-.078.57-.36.99-.683 1.296-.68.568-1.287.706-1.67.878-.393.148-.608.24-.65.188" class="B"/><path d="M105.153 123.83s5.264.03 8.12-1.73c0 0-2.416 2.968-7.25 3.736l-.87-2.007z" class="I"/><path d="M107.436 100.223c-.048.26-.784.34-1.562.684-.8.32-1.358.792-1.578.645-.225-.12.147-1.06 1.213-1.507s1.996-.067 1.927.178M97.12 107c-.2-.147.113-.995.87-1.844.767-.866 1.747-1.155 1.85-.913.1.236-.488.785-1.16 1.547-.683.76-1.346 1.37-1.562 1.2" class="F"/><path d="M93.122 105.682c-.427-.316-.76-1.67.873-3.492 1.647-1.865 3.488-1.536 3.7-1.018.237.508-.376 1.23-1.822 2.87-1.468 1.634-2.3 1.985-2.76 1.64m8.664-7.182c-.236-.442.025-1.727 2.148-2.622 2.153-.925 3.587.095 3.567.626-.004.527-.815.897-2.706 1.712-1.905.8-2.754.766-3 .285" class="B"/><path d="M554.6 111.282c.14.138-2.148 2.7-6.892 5.512-4.686 2.8-12.06 5.573-20.54 5.636s-15.895-2.603-20.622-5.332c-4.784-2.73-7.1-5.27-6.973-5.4.198-.25 2.798 1.893 7.6 4.238 4.744 2.354 11.895 4.7 20 4.633s15.212-2.504 19.922-4.928c4.754-2.416 7.324-4.596 7.525-4.348m-51.74-3.887c-.13.285-2.66-.766-6.926-1.717-2.126-.502-4.705-.9-7.577-1.246l-9.436-.812-9.517-.87c-2.927-.388-5.557-.85-7.723-1.436-4.35-1.135-6.813-2.48-6.727-2.668.113-.286 2.703.598 7 1.373 2.15.4 4.742.728 7.63 1.015l9.462.72 9.527.968c2.922.46 5.544.994 7.7 1.675 4.307 1.315 6.686 2.82 6.6 2.998" class="C"/></g><mask id="A" mask-type="alpha" maskUnits="userSpaceOnUse" x="434" y="35" width="171" height="84"><path d="M434.468 35.205h169.886v83.236H434.468V35.205z" class="E H"/></mask><g mask="url(#A)" class="C H"><path d="M451.556 52.065c8.086-1.716 16.463-.24 24.615 1.12s16.62 2.584 24.6.395c14.392-3.95 25.317-18.49 40.242-18.374 6.146.048 11.938 2.672 17.925 4.06 7.435 1.725 15.18 1.54 22.71 2.77s15.313 4.26 19.57 10.595c5.05 7.518 3.665 18.122-1.634 25.466S585.8 89.916 577.095 92.45c-6.065 1.767-12.527 2.79-17.776 6.306-5.308 3.558-8.775 9.283-13.72 13.33-12.412 10.15-31.73 7.24-44.55-2.387-3.222-2.42-6.207-5.226-9.826-6.996-14.72-7.206-35.89 2.333-48.57-10.777-12.874-13.314-11.04-35.632 8.902-39.86"/></g><g class="H"><path d="M447.516 309.916s13.487 28.908 15.065 23.556 1.053-18.212.21-20.047c-.85-1.836-6.362-9.945-6.362-9.945l-8.912 6.436z" class="G"/><path d="M545.04 76.15c1.248 1.598.414-.12 1.827 2.187 5.873-.204 9.815-5.174 9.815-5.174s9.322.247 9.214-1.418-8.936-1.045-8.936-1.045 9.34-2.934 8.83-4.4-11.294 3.205-11.294 3.205 10.882-6.755 9.274-7.838-12.077 4.816-12.077 4.816 9.1-7.474 7.736-8.437-13.983 8.764-13.983 8.764c.184-4.786-3.25-4.618-3.25-4.618l.142 11.685s2.127 1.537 2.702 2.273M406.866 23.267c-1.994.368-.448-.326-3.037.465-4.252-4.055-3.688-10.428-3.688-10.428s-7.132-6.004-5.95-7.177c1.2-1.176 7.378 5.152 7.378 5.152s-5.035-8.397-3.68-9.152 6.32 9.896 6.32 9.896-3.655-12.276-1.733-12.02S408.3 11.62 408.3 11.62 406.468-.01 408.124.175s4.64 15.838 4.64 15.838c3.038-3.7 5.493-1.296 5.493-1.296l-7.703 8.47s-2.77-.1-3.688.078m48.384 48.8c-2.58-.424-8.816 3.72-11.936 10.477-1.747 3.78-2.95 7.623-.944 13.772.944 2.893 2.92 3.255 3.36 4.55.557 1.64-1.3 6.812-1.3 6.812l7.362 2.973c.48-3.553 1.02-7.127 4.64-8.67 1.355-.578 2.805-.943 4.083-1.676 3.45-1.977 5.3-6.302 6.708-9.844 1.057-2.645-5.52-17.337-11.986-18.397" class="D"/><path d="M446.485 172.478l-12.334-4.95s-36.605 67.883-36.453 86.717 50.275 56.54 50.275 56.54l8.454-7.306s-15.475-26.984-23.748-36.498 13.806-94.505 13.806-94.505" class="G"/><g class="D"><path d="M507.727 249.807s27.186-12.9 21.723-14.038-18.24.43-19.998 1.42-9.395 7.146-9.395 7.146l7.67 5.47z"/><path d="M458.6 171.9l-18.7 6.807s-18.717 82.325-11.57 95.25 27.2 4.374 55.8-11.224l23.938-13.068-8-5.318s-27.856 5.46-35.68 10.9l9.526-27.896c5.443-16.33 9.197-33-15.302-55.452m-23.022-56.095c0-5.47 1.76-9.425 7.23-9.425s13.03 1.917 13.03 7.388-4.3 14.355-9.783 14.355-10.478-6.846-10.478-12.318"/><path d="M439.9 105.595s-17.008-18.407-20.4-36.44l-9.184-47.286-6.464 1.86s-3.064 39.984 0 46.106 18.02 46.9 22.575 57.597l13.483-21.84zm18.272 14.345s1.308-5.725 22.816-13.508 62.083-33 62.083-33l4.048 4.632s-22.047 25.467-34.873 29.933-40.07 22.08-42.872 23.5c-4.24 2.132-4.187 4.815-11.202-11.545"/></g><g class="F"><path d="M439.89 105.595s-17.28 5.6-17.28 31.895c0 0 .01 36.013 4.083 42.565 0 0 6.62 1.696 14.876 0 8.655-1.78 17.033-8.165 17.033-8.165l13.593-40.8-1.625-19.12-18.483-3.57s5.302 24.777-13.88 14.125c-3.728-2.07 5.485-16.127 5.485-16.127l-3.8-.794z"/><path d="M425.268 126.98l-8.515-17.74s1.22-10.762 16.853-14.618c0 0 1.58 5.424 3.314 7.497s6.776 4.276 6.776 4.276l-18.428 20.585zm32.192 7.13l27.076-5.55s4.708-9.754-6.455-21.357l-23.854 1.503c-2.7.224-.843 2.297-.843 2.297l4.076 23.107zm-30.8 37.173l-29.84 55.8s75.555 34.707 106.226-7.07c0 0-17.447-36.927-44.418-50.985l-11.636-3.485-19.876 5.5"/></g><path d="M466.243 90.024s2.918-2.917 4.712-.898-6.506 4.937-6.506 4.937l1.794-4.04z" class="D"/><path d="M519.605 50.236c.03.1-1.098.59-3.25 1.1-2.147.516-5.33.985-9.287 1.066s-8.654-.273-13.8-.97c-5.15-.683-10.743-1.686-16.628-2.327-5.875-.628-11.525-.743-16.528.065-5.005.794-9.337 2.434-12.648 4.348-3.31 1.93-5.615 4.07-7.03 5.7-1.422 1.622-2.063 2.657-2.207 2.57-.08-.04.35-1.207 1.638-3.025 1.28-1.812 3.54-4.204 6.912-6.366 3.37-2.15 7.846-3.995 13.05-4.92 5.21-.937 11.035-.865 17.013-.225 5.983.653 11.584 1.713 16.673 2.48 5.088.784 9.687 1.263 13.56 1.353 7.763.217 12.462-1.16 12.532-.84" class="C"/><path d="M451.387 88.368c-.008.115-.84.195-2.108-.226-.313-.1-.684-.255-1.03-.57a1.68 1.68 0 0 1-.425-.62c-.14-.353-.128-.754.01-1.06.04-.06.038-.207.118-.2l.247-.008c.158-.022.345.03.527.064.335.064.443.054.682.07.418.01.85-.034 1.284-.13 1.772-.373 2.957-1.662 3.49-2.722.557-1.067.606-1.87.755-1.86.105-.014.312.84-.15 2.127-.234.63-.642 1.354-1.3 1.99s-1.56 1.154-2.59 1.38a5.68 5.68 0 0 1-1.527.132 5.87 5.87 0 0 1-.657-.076c-.09-.015-.08-.035-.098-.025-.01.01-.016.03-.015.054a.91.91 0 0 0 .197.345c.2.214.465.373.734.507 1.096.538 1.874.698 1.854.838" class="B"/><path d="M445.313 88.684l9.975 3.93s-8.766 6.045-9.975-3.93" class="E"/><path d="M459.547 90.575c-.354.673-1.453.8-2.454.263s-1.526-1.5-1.173-2.17 1.453-.792 2.455-.264 1.526 1.5 1.172 2.172m-11.132-5.904c-.303.698-1.4.9-2.427.45s-1.637-1.38-1.334-2.077 1.388-.9 2.427-.45 1.636 1.38 1.334 2.077" class="G"/><path d="M444.72 99.623s3.497 2.928 7.144 1.985c0 0-1.257 1.886-6.1 1.194 0 0 .402-2.078-1.045-3.18" class="I"/><path d="M458.6 84.3a.791.791 0 1 1-1.581 0 .791.791 0 1 1 1.581 0m-6.477-2.32a.79.79 0 1 1-1.58 0 .79.79 0 1 1 1.58 0" class="F"/><path d="M461.13 82.205c-.244.103-.715-.467-1.43-.93-.7-.482-1.408-.7-1.407-.963-.023-.254.966-.46 1.927.185s1.153 1.63.9 1.707m-11.398-3.834c-.017-.247.832-.557 1.97-.527 1.157.025 2 .586 1.892.82-.1.237-.914.135-1.93.116-1.02-.03-1.916-.14-1.932-.4" class="C"/><g class="F"><path d="M453.293 321.662s4.15 14.727 8.433 13.52 1.063-21.758 1.063-21.758l-4.274-6.756s4.015 34.405-5.222 14.993m52.32-81.647s3.017-3.292 6.674-3.84 16.733-2.104 18.653-.366-10.597 7.562-10.597 7.562 4.36-2.78 2.55-3.812c-3.2-1.83-17.28.456-17.28.456"/><path d="M500.425 243.957l4.093 8.3 2.234-1.24-5.46-8.187-.868 1.116zm-45.772 56.193l-10.048 9.056 2.978 2.48 8.434-9.18-1.364-2.357zm-210.067-90.157c-2.857-7.1-3.955-14.986-8.22-21.332-6.136-9.13-17.92-13.662-22.9-23.473-2.115-4.167-2.778-8.933-2.8-13.606-.04-9.244 2.727-19.07 9.867-24.946 8.204-6.75 20.514-6.656 30.123-2.12s16.947 12.766 23.187 21.364 11.707 17.824 18.975 25.572c5.4 5.745 11.78 10.7 15.84 17.448 11.13 18.504-.32 41.915-19.967 48.593-17.263 5.866-38.133-12.674-44.106-27.5"/></g><g class="D"><path d="M219.994 340.493c1.708 1.405-.156.432 2.33 2.05-.555 6.2-6.298 10.12-6.298 10.12s-.243 9.886-2.088 9.683-.665-9.52-.665-9.52-3.78 9.737-5.38 9.117 4.2-11.8 4.2-11.8-8.113 11.167-9.227 9.407 6.025-12.535 6.025-12.535-8.815 9.24-9.8 7.745 10.52-14.345 10.52-14.345c-5.33-.058-4.952-3.686-4.952-3.686l12.98.77s1.6 2.333 2.377 2.982m123.99-186.446c2.22.4.498-.346 3.38.492 4.733-4.3 4.105-11.058 4.105-11.058s7.94-6.366 6.622-7.6c-1.324-1.247-8.2 5.46-8.2 5.46s5.603-8.902 4.096-9.703-7.032 10.494-7.032 10.494 4.067-13.018 1.928-12.745-6.493 12.318-6.493 12.318 2.05-12.33.206-12.136-4.83 16.348-4.83 16.348c-4.347-3.537-7.4-1.273-7.4-1.273l9.514 9.33s3.084-.094 4.104.083"/><path d="M289.657 208.035c4.015-.626 16.26 7.3 13.145 23.426-.26 1.353-2.028 4.33-2.468 5.563-.556 1.56 3.776 7.27 3.776 7.27l-11.183 3.573c-.477-3.378.326-8.315-3.288-9.782-1.352-.55-2.8-.897-4.074-1.593-3.444-1.88-5.282-5.995-6.696-9.362-1.056-2.516-1.86-5.223-1.83-7.953.073-6.876 6.163-10.134 12.618-11.143"/><path d="M312.05 252.173c0-5.8-1.84-8.015-7.928-8.015s-14.125 2.214-14.125 8.015 4.3 13.062 10.4 13.062 11.663-7.26 11.663-13.062m-4.817-10.827s18.93-19.518 22.717-38.64l10.222-50.144 7.195 1.974s3.4 42.4 0 48.892-22.72 51.588-22.34 63.13l-17.794-25.214zm-33.745 9.45s-6.437 1.082-16.282 23.45-40.136 64.005-40.136 64.005l4.923 4.534s29.533-22.004 35.213-35.35 12.872-29.94 16.282-29.222 17.795-19.12 0-27.416"/></g><path d="M324.18 269.542l8.814-24.33s-1.36-11.4-18.757-15.502l-9.856 14.2 19.8 25.63zm-47.744-20.612s-10.4.876-18.828 19.4c0 0 9.27 12.798 16.05 13.23 0 0 25.188-21.53 2.777-32.62" class="B"/><path d="M305 468.487s-15.012 30.656-16.767 24.98-1.173-19.312-.233-21.258 7.082-10.546 7.082-10.546l9.918 6.824z" class="D"/><path d="M306.157 322.747l13.728-5.25s40.743 71.985 40.574 91.957-55.957 59.958-55.957 59.958l-9.41-7.75s26.443-38.878 35.65-48.967c4.605-5.046-28.357-29.773-33.35-53.564s8.766-36.385 8.766-36.385" fill="#654287"/><path d="M223.615 452.43s-28.08 20.698-26.913 14.89 8.242-17.68 10.014-19 11.363-6.284 11.363-6.284l5.536 10.395z" class="D"/><g class="C"><path d="M268.806 348.237l40.617-23.54s1.612 81.77-8.14 99.45-78.565 28.88-78.565 28.88l-4.64-10.993s42.456-25.296 55.49-30.247-4.764-63.55-4.764-63.55"/><path d="M292.996 308.596s-29.906 10.59-24.19 39.642 15.245 34.498 15.245 34.498l17.15-28.143 17.22-36.855-17.22-2.185-8.207-6.957z"/></g><path d="M307.243 241.346s22.018 12.34 22.018 40.224c0 0-2.797 31.79-7.33 38.734 0 0-7.37 1.8-16.557 0-9.633-1.886-18.956-8.657-18.956-8.657l-7.525-38.92-5.853-22.725 3.173-1.046 16.56-1.82s-2.38 24.738 16.11 12.454c3.895-2.588-4.848-15.487-4.848-15.487l3.208-2.758z" class="B"/><path d="M320.72 135.978l46.165 26.93 25.97-49.052-43.28-24.045-28.853 46.166zm64.224 234.808l33.017-20.44-27.278-47.615L360.5 322.3l24.443 48.483z" class="E"/><path d="M222.376 167.9c.087-.078 1.106.848 2.718 2.735 1.605 1.9 3.795 4.764 5.993 8.642 2.206 3.862 4.4 8.762 5.948 14.45 1.613 5.646 2.695 12 5.175 18.104 1.288 3.02 2.848 5.83 4.705 8.316 1.874 2.47 3.952 4.636 6.1 6.526 4.37 3.68 8.95 6.2 13.032 7.672 4.077 1.482 7.57 2.147 9.997 2.386 2.426.268 3.797.308 3.798.467.007.1-1.36.308-3.85.26-2.5-.02-6.112-.494-10.38-1.862-4.27-1.35-9.095-3.846-13.7-7.605-2.264-1.933-4.463-4.17-6.444-6.74-1.965-2.587-3.625-5.543-4.972-8.7-2.584-6.4-3.604-12.8-5.107-18.36a67.11 67.11 0 0 0-5.447-14.27c-2.004-3.88-3.994-6.823-5.404-8.828-1.418-2.002-2.25-3.087-2.143-3.18m56.72-31.52c.34-.052.67 4.492 3.212 11.214a50.54 50.54 0 0 0 5.871 11.062c1.356 1.933 2.916 3.838 4.682 5.737 1.754 1.906 3.664 3.842 5.47 6.014 3.62 4.384 6.1 9.122 8.456 13.304 2.33 4.223 4.183 8.24 5.126 11.833.984 3.582 1.04 6.666.73 8.7-.325 2.055-.836 3.096-.92 3.068-.162-.043.102-1.142.195-3.133.08-1.988-.173-4.885-1.273-8.27-1.062-3.4-2.974-7.232-5.36-11.365-2.423-4.13-4.935-8.774-8.394-12.952-1.736-2.1-3.62-4.02-5.383-5.973-1.775-1.945-3.388-3.97-4.75-5.996-2.73-4.057-4.554-8.1-5.696-11.595-1.168-3.494-1.665-6.442-1.9-8.474s-.17-3.175-.064-3.184" class="F"/><path d="M293.247 225.553c-.017-.13.735-.25 1.445-1.085.163-.192.328-.473.325-.636a1.01 1.01 0 0 0-.338-.657c-.22-.196-.463-.292-.784-.26-.333.025-.738.19-1.266.268-1.158.154-2.062-.5-2.656-1.03-.6-.557-1.076-1.122-1.424-1.63-.692-1.02-.907-1.758-.8-1.813.122-.065.54.545 1.32 1.4.4.425.882.913 1.462 1.383.573.457 1.273.872 1.972.762.37-.048.803-.22 1.33-.256a1.83 1.83 0 0 1 1.458.561c.347.376.542.82.5 1.344-.104.537-.388.787-.624 1.022-1.018.89-1.95.745-1.92.624" class="B"/><path d="M298.703 226.32l-8.866 3.224s7.523 6.58 8.866-3.224" class="E"/><path d="M288.952 225.772c.354.673-.17 1.646-1.172 2.172s-2.1.4-2.454-.263.17-1.645 1.172-2.172 2.1-.4 2.454.263m10.51-5.4c.3.703-.323 1.62-1.368 2.053s-2.13.214-2.42-.5.323-1.622 1.37-2.053 2.13-.214 2.42.5" class="G"/><path d="M290.1 238.32s2.967.604 6.748-.34c0 0-1.864 1.81-4.9 2.232 0 0-.682-1.262-1.838-1.892" class="I"/><path d="M293.13 218.4a.79.79 0 1 1-1.022 1.205.79.79 0 1 1 1.022-1.205m-5.958 3.43a.79.79 0 0 1 .091 1.113.79.79 0 0 1-1.113.091.79.79 0 0 1-.091-1.113.79.79 0 0 1 1.113-.091m5.993-6.727c-.08.253-.82.244-1.633.5-.82.22-1.443.622-1.644.45-.2-.145.274-1.033 1.387-1.35s2 .175 1.9.4m-10.303 6.217c-.2-.147.113-.995.87-1.842.766-.867 1.747-1.156 1.85-.914.1.235-.488.784-1.16 1.546-.68.76-1.345 1.372-1.56 1.2" class="F"/><path d="M279.528 227.893s-2.844-2.39-4.21-.228 6.143 3.3 6.143 3.3l-1.934-3.07z" class="D"/><path d="M211.15 445.702s-4.077 1.773-5.14 2.837-10.814 17.902-9.572 20.03 11.018-5.093 11.018-5.093-8.18 1.55 3.694-17.773m79.556 22.267s-2.896 3.13-3.343 4.567-1.246 20.877.843 22.183 7.794-9.422 7.794-9.422-6.823 5.345-5.294-17.283" class="C"/></g></svg>