<svg width="84" height="24" viewBox="0 0 84 24" fill="none" xmlns="http://www.w3.org/2000/svg">
<g clip-path="url(#clip0)">
<path d="M9.09675 3.97272V10.7425H2.92846V3.97272H0V20.1328H2.92846V13.5828H9.09675V20.1328H12.0252V3.97272H9.09675Z" fill="#33475B"/>
<path d="M21.3974 14.909C21.3974 15.5567 21.1422 16.1778 20.6878 16.6357C20.2335 17.0937 19.6173 17.351 18.9747 17.351C18.3322 17.351 17.716 17.0937 17.2616 16.6357C16.8073 16.1778 16.552 15.5567 16.552 14.909V7.98743H13.7742V14.909C13.7742 16.2979 14.3216 17.6299 15.2959 18.612C16.2703 19.5941 17.5918 20.1458 18.9697 20.1458C20.3476 20.1458 21.6691 19.5941 22.6435 18.612C23.6178 17.6299 24.1652 16.2979 24.1652 14.909V7.98743H21.3974V14.909Z" fill="#33475B"/>
<path d="M41.9786 8.70041C41.9786 7.28167 42.9098 6.83189 43.93 6.83189C44.7521 6.83189 45.8383 7.46244 46.5485 8.22749L48.3679 6.06684C47.4596 4.82888 45.6173 3.97272 44.1093 3.97272C41.0962 3.97272 38.9167 5.75157 38.9167 8.70041C38.9167 14.1715 45.5513 12.436 45.5513 15.4976C45.5513 16.442 44.6416 17.2765 43.5999 17.2765C41.9571 17.2765 41.4248 16.4666 40.67 15.6104L38.6513 17.7263C39.9426 19.3243 41.5352 20.1357 43.4436 20.1357C46.306 20.1357 48.6089 18.3351 48.6089 15.5208C48.6089 9.44666 41.9743 11.334 41.9743 8.70041" fill="#33475B"/>
<path d="M83.0228 17.5512C81.3814 17.5512 80.9151 16.8354 80.9151 15.7391V10.8871H83.4662V8.4285H80.9151V5.18463L78.0985 6.45875V16.3422C78.0985 18.8702 79.8289 20.1443 82.2021 20.1443C82.5743 20.1512 82.9463 20.1211 83.3127 20.0547L83.9999 17.505C83.69 17.5267 83.3342 17.5484 83.0228 17.5484" fill="#33475B"/>
<path d="M31.9706 8.06844C30.5946 8.06844 29.6347 8.47048 28.7064 9.38883V4.06964H25.9243V13.9285C25.9243 17.6193 28.5715 20.1473 31.5459 20.1473C34.846 20.1473 37.7486 17.5744 37.7486 14.1093C37.7486 10.6875 35.077 8.06988 31.9706 8.06988V8.06844ZM31.9534 17.3257C31.3291 17.3257 30.7188 17.1391 30.1997 16.7895C29.6806 16.4399 29.276 15.943 29.0371 15.3616C28.7982 14.7802 28.7357 14.1405 28.8575 13.5233C28.9793 12.9061 29.2799 12.3392 29.7214 11.8942C30.1628 11.4492 30.7253 11.1462 31.3376 11.0235C31.9499 10.9007 32.5846 10.9637 33.1614 11.2045C33.7382 11.4453 34.2312 11.8531 34.578 12.3764C34.9249 12.8996 35.11 13.5147 35.11 14.144C35.11 14.9878 34.7774 15.7971 34.1855 16.3938C33.5935 16.9905 32.7906 17.3257 31.9534 17.3257Z" fill="#33475B"/>
<path d="M62.1792 13.9617C62.1792 10.4908 59.2823 7.92377 55.9765 7.92377C53.0021 7.92377 50.3549 10.4518 50.3549 14.1425V24.0072H53.137V18.6807C54.0639 19.5976 55.0252 20.0011 56.3997 20.0011C59.5061 20.0011 62.1778 17.3849 62.1778 13.9617H62.1792ZM59.5449 13.927C59.5449 14.5563 59.3597 15.1714 59.0129 15.6947C58.666 16.2179 58.173 16.6257 57.5962 16.8665C57.0195 17.1073 56.3848 17.1703 55.7724 17.0476C55.1601 16.9248 54.5977 16.6218 54.1562 16.1768C53.7148 15.7318 53.4141 15.1649 53.2923 14.5477C53.1705 13.9305 53.233 13.2908 53.472 12.7094C53.7109 12.1281 54.1155 11.6312 54.6346 11.2815C55.1537 10.9319 55.764 10.7453 56.3883 10.7453C57.2254 10.7453 58.0283 11.0806 58.6203 11.6772C59.2123 12.2739 59.5449 13.0832 59.5449 13.927Z" fill="#33475B"/>
<path d="M71.167 7.78787V4.97063C71.5364 4.79667 71.8492 4.52054 72.0689 4.17438C72.2886 3.82823 72.4063 3.42628 72.4082 3.01535V2.95027C72.4082 2.37493 72.1814 1.82315 71.7778 1.41632C71.3742 1.00949 70.8267 0.780939 70.2559 0.780939H70.1914C69.6206 0.780939 69.0731 1.00949 68.6695 1.41632C68.2659 1.82315 68.0391 2.37493 68.0391 2.95027V3.01535C68.041 3.42628 68.1587 3.82823 68.3784 4.17438C68.5981 4.52054 68.9109 4.79667 69.2803 4.97063V7.78787C68.2186 7.95157 67.2188 8.3951 66.3819 9.07356L58.7171 3.05584C58.7714 2.8574 58.8003 2.6528 58.8032 2.44698C58.8041 1.96352 58.6626 1.49067 58.3968 1.08823C58.131 0.685791 57.7528 0.371847 57.31 0.186108C56.8671 0.000369021 56.3796 -0.0488204 55.909 0.0447614C55.4384 0.138343 55.006 0.370492 54.6663 0.711844C54.3266 1.0532 54.095 1.48842 54.0008 1.96245C53.9066 2.43649 53.9539 2.92805 54.1369 3.37496C54.3198 3.82186 54.6302 4.20404 55.0287 4.47314C55.4271 4.74224 55.8959 4.88618 56.3755 4.88675C56.7949 4.88486 57.2065 4.77217 57.5693 4.55991L65.1178 10.4793C64.4396 11.5118 64.0857 12.7264 64.1023 13.9647C64.119 15.203 64.5053 16.4075 65.2111 17.4211L62.9154 19.7351C62.7298 19.6753 62.5363 19.6436 62.3415 19.6411C61.9477 19.6414 61.5629 19.7593 61.2356 19.98C60.9083 20.2007 60.6533 20.5142 60.5027 20.8809C60.3522 21.2477 60.3128 21.6511 60.3897 22.0404C60.4666 22.4296 60.6563 22.7872 60.9347 23.0678C61.2131 23.3485 61.5678 23.5396 61.954 23.6171C62.3402 23.6946 62.7405 23.655 63.1044 23.5033C63.4682 23.3515 63.7793 23.0944 63.9982 22.7646C64.2171 22.4347 64.3342 22.0468 64.3344 21.6499C64.332 21.4535 64.3005 21.2585 64.2412 21.0714L66.5125 18.782C67.2531 19.3565 68.1144 19.7525 69.0303 19.9397C69.9462 20.1268 70.8924 20.1003 71.7965 19.8619C72.7007 19.6236 73.5387 19.1799 74.2464 18.5647C74.9541 17.9495 75.5128 17.1793 75.8796 16.3129C76.2464 15.4465 76.4116 14.507 76.3625 13.5664C76.3135 12.6257 76.0515 11.7088 75.5966 10.886C75.1418 10.0631 74.5061 9.35614 73.7383 8.81913C72.9705 8.28212 72.091 7.92936 71.167 7.78787V7.78787ZM70.2258 17.0523C69.6045 17.0518 68.9973 16.8656 68.481 16.5173C67.9647 16.169 67.5624 15.6742 67.3249 15.0955C67.0875 14.5168 67.0256 13.8801 67.147 13.266C67.2685 12.6518 67.5678 12.0878 68.0073 11.6451C68.4467 11.2023 69.0065 10.9009 69.6158 10.7787C70.2252 10.6566 70.8568 10.7193 71.4308 10.9589C72.0049 11.1984 72.4955 11.6042 72.8409 12.1248C73.1862 12.6454 73.3706 13.2574 73.3709 13.8837C73.3709 14.7237 73.0399 15.5293 72.4506 16.1232C71.8613 16.7172 71.062 17.0509 70.2287 17.0509" fill="#FF7A59"/>
</g>
<defs>
<clipPath id="clip0">
<rect width="84" height="24" fill="white"/>
</clipPath>
</defs>
</svg>
