<svg xmlns="http://www.w3.org/2000/svg" width="520" height="574" fill="none" xmlns:v="https://vecta.io/nano"><style><![CDATA[.B{fill-rule:evenodd}.C{fill:#fff}.D{fill:#ffad69}.E{fill:#232323}.F{fill:#ff4e4a}]]></style><mask id="A" mask-type="alpha" maskUnits="userSpaceOnUse" x="0" y="62" width="520" height="512"><path d="M.001 62.3h519.784V573.3H.001V62.3z" class="B C"/></mask><g mask="url(#A)" class="B"><path d="M456.45 550.18c-13.45 8.1-29.1 13.95-46.35 17.75-11.45 2.5-23.65 4.15-36.35 4.85-46.7 2.85-100.4-5.9-152.15-23.4-11.6-3.9-23.1-8.25-34.4-13.05-84.15-35.4-157.3-93.2-177.8-160.2-37.45-122.3 42.95-210.25 136.05-290.95 37.75-32.75 86.95-28.05 137.85-.4 11.9 6.45 23.85 14.15 35.8 22.9 44.85 32.95 89.25 80.9 126.75 134.2 73.6 104.65 116.2 244.85 10.6 308.3z" fill="#fde6d6"/></g><g class="B"><path d="M417.217 155.934c-8.685-17.5-11.865-39.67 5.55-46.805 19.45-7.965 50.44 4.916 59.46 34.14 5.765 18.674 3.785 44.744-12.145 54.765-13.63 8.58-42.2-20.625-52.865-42.1z" fill="#e8e5ea"/><path d="M141.485 66.843h-.045l-9.96-.375a.62.62 0 0 1-.625-.625.63.63 0 0 1 .625-.625h.005a162.99 162.99 0 0 1 10.045.375.63.63 0 0 1 .58.67c-.025.33-.3.58-.625.58zm-29.97.96a.63.63 0 0 1-.62-.535c-.05-.34.185-.66.53-.7 3.23-.47 6.6-.82 10.005-1.045.4-.065.645.24.665.585a.62.62 0 0 1-.58.66 131.4 131.4 0 0 0-9.91 1.035c-.03.005-.06.01-.1.01zm49.84 1.515c-.04 0-.075-.005-.1-.01-3.285-.6-6.605-1.1-9.87-1.5-.345-.045-.6-.355-.545-.7s.33-.57.7-.54c3.3.4 6.63.92 9.935 1.5a.63.63 0 0 1 .505.725.63.63 0 0 1-.615.515zm-69.33 3c-.265 0-.5-.17-.595-.44a.62.62 0 0 1 .41-.78c3.165-1 6.425-1.9 9.695-2.655.33-.08.675.13.75.465s-.13.67-.465.75c-3.24.76-6.475 1.645-9.605 2.63a.63.63 0 0 1-.19.03zm88.87 1.38a.62.62 0 0 1-.165-.02 230.05 230.05 0 0 0-9.695-2.4c-.34-.075-.55-.4-.475-.75a.61.61 0 0 1 .745-.47 240.86 240.86 0 0 1 9.755 2.41c.33.095.53.435.435.77-.075.275-.325.46-.6.46zm19.135 5.95c-.07 0-.14-.01-.2-.035-3.13-1.105-6.325-2.16-9.485-3.145-.33-.105-.515-.455-.4-.78.1-.33.455-.52.78-.4 3.175.985 6.385 2.05 9.53 3.155a.63.63 0 0 1 .385.8c-.1.255-.33.415-.6.415zm-126.52.195a.62.62 0 0 1-.555-.345c-.155-.305-.035-.68.275-.84a116.88 116.88 0 0 1 9.15-4.17c.3-.14.68.025.8.345s-.025.685-.345.815c-3.1 1.25-6.135 2.64-9.05 4.125a.65.65 0 0 1-.285.07zm145.2 7.05a.63.63 0 0 1-.245-.05 307.09 307.09 0 0 0-9.265-3.765.63.63 0 0 1-.355-.81c.13-.32.5-.47.8-.355 3.1 1.2 6.23 2.475 9.3 3.78a.63.63 0 0 1 .335.82c-.105.235-.335.38-.58.38zM56.6 90.498c-.2 0-.37-.08-.495-.24a.63.63 0 0 1 .115-.88 108.62 108.62 0 0 1 8.245-5.755c.295-.18.68-.095.865.195.185.295.095.68-.195.86a108.73 108.73 0 0 0-8.155 5.695.62.62 0 0 1-.38.125zm180.3 4.755c-.1 0-.185-.02-.275-.065l-9.03-4.3a.63.63 0 0 1-.305-.83c.145-.315.515-.455.83-.3l9.06 4.315a.63.63 0 0 1 .285.84c-.1.22-.335.35-.565.35zm-194.915 8.88c-.15 0-.295-.05-.415-.16a.62.62 0 0 1-.05-.88c2.215-2.495 4.575-4.92 7.02-7.2a.62.62 0 1 1 .85.91c-2.4 2.26-4.745 4.656-6.94 7.12a.61.61 0 0 1-.465.209zm212.65.45a.62.62 0 0 1-.305-.08l-8.8-4.77a.63.63 0 0 1-.265-.845.63.63 0 0 1 .845-.265l8.82 4.8c.3.17.4.55.24.85a.62.62 0 0 1-.545.32zm17.25 10.2c-.1 0-.225-.03-.33-.095l-8.545-5.195a.62.62 0 0 1-.22-.855c.17-.305.555-.4.855-.22l8.575 5.2a.63.63 0 0 1 .195.865c-.115.185-.32.3-.53.3zm-241.785 5.42a.62.62 0 0 1-.33-.094.63.63 0 0 1-.205-.861c1.76-2.865 3.655-5.674 5.62-8.345.2-.274.6-.33.875-.13a.62.62 0 0 1 .13.871c-1.945 2.645-3.815 5.42-5.56 8.26a.61.61 0 0 1-.53.3zm258.535 5.6c-.125 0-.25-.04-.355-.1l-8.3-5.595c-.3-.2-.37-.575-.18-.865.2-.28.575-.365.865-.18l8.32 5.605c.3.2.36.6.165.87a.64.64 0 0 1-.515.275zm16.205 11.725c-.13 0-.26-.04-.375-.125l-8.03-5.95c-.28-.205-.34-.595-.14-.87a.62.62 0 0 1 .875-.14l8.05 5.966c.275.204.325.6.12.875-.125.16-.3.244-.5.244zm-283.845.495a.7.7 0 0 1-.24-.044c-.32-.136-.47-.506-.335-.82 1.3-3.12 2.735-6.19 4.23-9.12a.62.62 0 0 1 .84-.274c.3.154.43.535.275.84a135.49 135.49 0 0 0-4.195 9.04.62.62 0 0 1-.575.379zm299.55 11.965a.64.64 0 0 1-.4-.14l-7.775-6.314a.62.62 0 0 1-.1-.875.63.63 0 0 1 .875-.106l7.8 6.33c.265.22.305.615.085.88a.63.63 0 0 1-.485.225zm-306.085 6.95c-.06 0-.115-.006-.17-.02a.63.63 0 0 1-.435-.774c.9-3.256 1.9-6.485 2.98-9.595.115-.326.475-.51.795-.4a.63.63 0 0 1 .39.794c-1.065 3.1-2.06 6.295-2.96 9.53-.075.275-.33.456-.6.456zm321.255 6.23a.61.61 0 0 1-.42-.165l-7.505-6.67c-.26-.22-.285-.62-.06-.88s.62-.28.88-.06l7.525 6.685c.255.235.275.63.04.885-.125.135-.3.205-.46.205zM10.17 176.492c-.035 0-.07-.005-.105-.01a.62.62 0 0 1-.51-.72c.555-3.325 1.195-6.64 1.9-9.86.075-.335.405-.545.745-.48.335.075.55.4.475.745a205.86 205.86 0 0 0-1.89 9.8c-.05.305-.315.525-.615.525zm340.08.495c-.16 0-.32-.06-.44-.185l-7.17-6.98c-.25-.24-.26-.635-.02-.885s.635-.26.88-.02l7.2 7c.245.245.245.64 0 .885-.12.125-.28.185-.44.185zm13.84 14.49a.62.62 0 0 1-.46-.206l-6.825-7.32c-.235-.244-.225-.644.02-.88.255-.235.645-.235.885.02l6.845 7.34c.235.255.215.65-.045.88a.6.6 0 0 1-.42.166zm-356.335 4.89h-.05a.63.63 0 0 1-.575-.67c.265-3.37.6-6.735.995-9.995.04-.34.32-.57.695-.545a.62.62 0 0 1 .545.695c-.4 3.245-.725 6.6-1 9.94a.62.62 0 0 1-.62.575zM377.2 206.642c-.18 0-.36-.08-.485-.23l-6.44-7.655a.62.62 0 1 1 .95-.815l6.46 7.68c.22.265.18.66-.1.88-.115.095-.255.14-.395.14zm-370.245 9.74a.63.63 0 0 1-.625-.629 289.36 289.36 0 0 1 .22-10.036c.015-.34.28-.625.65-.6.345.015.615.306.6.65-.13 3.29-.205 6.65-.22 9.99 0 .345-.28.625-.625.625zm382.5 6.116a.61.61 0 0 1-.505-.255l-6.005-8a.63.63 0 0 1 .115-.88.62.62 0 0 1 .875.115c2.03 2.62 4.055 5.325 6.025 8.03.2.28.14.67-.135.87-.115.085-.245.12-.37.12zM7.5 236.412a.63.63 0 0 1-.625-.59l-.44-10.03c-.01-.345.26-.635.605-.645h.02a.63.63 0 0 1 .625.61c.1 3.25.24 6.6.44 10 .02.345-.245.64-.6.665H7.5zm393.2 2.645c-.205 0-.4-.1-.53-.3a303.03 303.03 0 0 0-5.495-8.35.63.63 0 0 1 .165-.869c.28-.196.675-.12.87.164a305.43 305.43 0 0 1 5.515 8.385c.185.295.1.68-.2.865a.63.63 0 0 1-.335.095zm10.12 17.3a.63.63 0 0 1-.55-.329c-1.56-2.9-3.205-5.83-4.895-8.716-.17-.295-.07-.675.225-.855s.68-.075.855.226c1.695 2.894 3.35 5.84 4.915 8.754a.62.62 0 0 1-.255.845c-.1.05-.195.075-.295.075zm-401.565.025c-.315 0-.585-.235-.62-.554l-1.025-9.98c-.03-.345.225-.65.565-.68a.59.59 0 0 1 .68.565l1.02 9.955c.04.34-.205.65-.55.7-.025.004-.045.004-.07.004zm410.3 17.99a.63.63 0 0 1-.575-.375 232.84 232.84 0 0 0-4.17-9.075.63.63 0 0 1 .29-.836c.305-.154.68-.024.835.286a242.54 242.54 0 0 1 4.195 9.125.63.63 0 0 1-.325.824.72.72 0 0 1-.25.051zM12.1 276.212c-.3 0-.565-.22-.615-.524l-1.535-9.916a.62.62 0 0 1 .53-.704c.32-.056.655.185.705.53l1.53 9.884c.06.34-.17.66-.5.72a.62.62 0 0 1-.105.01zm414.555 16.88a.62.62 0 0 1-.595-.43 192.35 192.35 0 0 0-3.29-9.42c-.12-.325.04-.685.365-.804.32-.14.68.035.805.36 1.2 3.164 2.3 6.354 3.3 9.48a.63.63 0 0 1-.405.79.64.64 0 0 1-.19.025zm-410.78 2.795c-.3 0-.545-.2-.6-.494l-2-9.83c-.07-.34.155-.665.495-.73.33-.09.665.155.73.494l1.995 9.805a.62.62 0 0 1-.48.74c-.04.01-.085.015-.13.015zm415.78 16.58c-.3 0-.555-.21-.6-.51-.62-3.185-1.36-6.455-2.205-9.72-.085-.335.115-.676.45-.76a.63.63 0 0 1 .76.45 161.03 161.03 0 0 1 2.22 9.795c.065.335-.155.664-.495.73a.45.45 0 0 1-.12.015zM20.52 315.372a.63.63 0 0 1-.605-.47l-2.435-9.725c-.08-.34.125-.675.46-.754a.63.63 0 0 1 .755.459l2.43 9.705c.085.336-.1.675-.445.765-.055.01-.1.02-.16.02zm413.6 16.935a.63.63 0 0 1-.625-.595c-.17-3.264-.465-6.604-.885-9.92a.62.62 0 0 1 .54-.695c.375-.03.655.2.7.54.42 3.345.725 6.715.895 10.01.02.345-.245.64-.6.66h-.035zm-407.975 2.8c-.265 0-.5-.17-.595-.44l-.15-.486-2.84-9.61a.62.62 0 1 1 1.2-.341l2.98 10.065a.62.62 0 0 1-.41.78.57.57 0 0 1-.185.03zm407.65 17.2h-.04c-.345-.024-.605-.324-.58-.67.23-3.27.4-6.62.465-9.96.005-.344.25-.594.64-.61.34.005.615.3.6.64-.075 3.36-.235 6.73-.47 10.02-.02.33-.3.58-.625.58zm-401.455 1.84c-.255 0-.5-.16-.6-.42l-3.175-9.505c-.105-.325.075-.68.405-.784s.68.074.785.4l3.17 9.485a.63.63 0 0 1-.39.795c-.07.02-.135.03-.205.03zm399 18.01c-.035 0-.07-.006-.1-.01a.63.63 0 0 1-.505-.724c.575-3.22 1.075-6.535 1.5-9.86a.63.63 0 0 1 .695-.544c.345.044.585.354.545.7-.415 3.35-.92 6.685-1.5 9.92-.055.305-.315.52-.615.52zm-392.225.81a.62.62 0 0 1-.58-.405l-3.47-9.385a.63.63 0 0 1 .375-.805.63.63 0 0 1 .8.38l3.46 9.365c.12.325-.04.685-.36.805a.6.6 0 0 1-.225.045zm7.4 18.62a.62.62 0 0 1-.575-.385l-3.78-9.29a.62.62 0 0 1 .35-.81.63.63 0 0 1 .81.345l3.77 9.275c.135.32-.015.685-.335.815a.59.59 0 0 1-.24.049zm380.18.016a.6.6 0 0 1-.18-.025c-.33-.1-.515-.45-.415-.78a170.4 170.4 0 0 0 2.59-9.621.63.63 0 0 1 .755-.465c.335.085.545.42.465.755-.775 3.245-1.655 6.506-2.615 9.69-.08.27-.33.445-.6.445zm-372.16 18.35a.62.62 0 0 1-.565-.365l-4.1-9.155c-.135-.315.01-.685.325-.825.315-.13.685.005.825.325l4.085 9.136c.145.315.005.685-.305.83a.6.6 0 0 1-.265.055zm365.25.416c-.085 0-.17-.015-.255-.056-.315-.134-.455-.504-.32-.82 1.33-3.02 2.58-6.13 3.73-9.245a.63.63 0 0 1 .805-.37c.32.12.485.48.365.805a164.43 164.43 0 0 1-3.755 9.31c-.105.235-.33.375-.57.375zM63.22 428.008c-.23 0-.45-.125-.56-.34l-4.435-9c-.15-.3-.02-.685.295-.836.32-.144.685-.02.835.3l4.42 8.98c.155.3.035.685-.275.84-.1.044-.185.065-.28.065zm347.425.16c-.1 0-.22-.025-.32-.085-.3-.18-.395-.56-.22-.855a164.17 164.17 0 0 0 4.825-8.745.62.62 0 0 1 .84-.27c.3.16.43.535.275.84-1.52 2.96-3.155 5.925-4.865 8.8-.115.195-.325.305-.535.305zm-11.16 16.6a.64.64 0 0 1-.38-.125c-.27-.204-.325-.6-.12-.875 2.005-2.65 3.955-5.375 5.795-8.11.195-.286.58-.366.87-.17s.36.585.165.87a176.02 176.02 0 0 1-5.83 8.165.63.63 0 0 1-.5.245zm-326.88.945a.62.62 0 0 1-.545-.319l-4.8-8.815c-.16-.306-.05-.685.255-.845.3-.15.685-.045.845.26l4.78 8.79c.17.3.06.684-.24.85-.095.055-.2.08-.305.08zm314 14.345c-.15 0-.305-.054-.425-.17-.25-.23-.265-.63-.03-.88a204.28 204.28 0 0 0 6.625-7.465c.225-.255.62-.296.88-.076a.63.63 0 0 1 .075.886 211.94 211.94 0 0 1-6.665 7.51c-.125.13-.3.194-.46.194zm-303.84 2.93a.63.63 0 0 1-.53-.295l-5.185-8.6c-.17-.3-.075-.685.225-.86a.63.63 0 0 1 .855.224l5.17 8.566c.18.295.1.68-.205.86-.1.065-.215.095-.33.095zM372.3 474.052c-.175 0-.345-.07-.47-.2-.23-.255-.205-.65.05-.88 2.5-2.25 4.96-4.54 7.295-6.82a.63.63 0 0 1 .88.01.62.62 0 0 1-.01.885 237.37 237.37 0 0 1-7.33 6.855c-.12.105-.27.16-.415.16zm-278.535 5.686a.62.62 0 0 1-.515-.271l-5.615-8.32c-.195-.284-.1-.674.18-.864a.63.63 0 0 1 .865.184l5.595 8.286a.62.62 0 0 1-.51.985zm263.105 7.08c-.2 0-.375-.085-.495-.245-.2-.275-.16-.664.115-.875a282.71 282.71 0 0 0 7.82-6.22c.265-.224.655-.185.875.08s.185.66-.08.88c-2.545 2.104-5.185 4.204-7.855 6.25a.62.62 0 0 1-.38.129zm-251.17 9.006c-.18 0-.365-.08-.5-.236a339.87 339.87 0 0 1-6.11-7.97.63.63 0 0 1 .13-.875.64.64 0 0 1 .88.13c2.02 2.726 4.065 5.395 6.08 7.935a.63.63 0 0 1-.1.881c-.115.09-.25.135-.4.135zm234.885 2.65c-.2 0-.395-.1-.52-.28-.2-.285-.115-.675.175-.865l8.22-5.7a.62.62 0 0 1 .87.145.63.63 0 0 1-.14.875l-8.255 5.7c-.105.07-.23.105-.35.105zm-16.935 10.7c-.215 0-.42-.11-.54-.306a.63.63 0 0 1 .22-.86l8.525-5.225a.64.64 0 0 1 .865.195c.18.295.095.68-.195.865l-8.555 5.24a.62.62 0 0 1-.32.091zm-204.94 1.89c-.165 0-.335-.07-.455-.2-2.225-2.405-4.47-4.935-6.67-7.5-.22-.26-.195-.66.07-.88s.66-.195.88.07c2.2 2.565 4.425 5.074 6.635 7.47.235.255.22.65-.035.884-.12.1-.27.165-.425.165zm187.505 7.98c-.225 0-.44-.12-.55-.326a.63.63 0 0 1 .25-.85l8.76-4.835a.63.63 0 0 1 .855.235c.165.3.06.68-.24.855l-8.78 4.845a.63.63 0 0 1-.295.076zm-173.265 6.1a.62.62 0 0 1-.415-.16 196.58 196.58 0 0 1-7.305-6.896.62.62 0 0 1-.005-.884c.24-.245.635-.245.88-.005a198.3 198.3 0 0 0 7.265 6.855.63.63 0 0 1 .045.884c-.125.135-.295.206-.465.206zm155.465 3.084c-.23 0-.455-.125-.56-.345-.155-.3-.025-.7.28-.84l8.935-4.516c.3-.155.675-.035.84.27a.63.63 0 0 1-.27.845l-8.95 4.52c-.1.045-.185.065-.275.065zm-18.085 8.636c-.235 0-.46-.136-.565-.365a.62.62 0 0 1 .305-.825l9.06-4.255c.305-.14.7-.015.835.295a.63.63 0 0 1-.295.835l-9.08 4.255c-.08.04-.17.06-.26.06zm-121.745.775a.64.64 0 0 1-.355-.116c-2.675-1.88-5.38-3.9-8.035-6.04-.27-.215-.315-.6-.1-.88.225-.265.615-.31.88-.095 2.635 2.1 5.315 4.13 7.97 6 .285.2.355.6.155.875a.63.63 0 0 1-.515.266zm103.505 7.4a.63.63 0 0 1-.575-.375c-.135-.315.01-.685.325-.825l9.14-4.04c.315-.14.685 0 .825.315s0 .685-.3.825l-9.155 4.045c-.08.035-.165.055-.25.055zm-86.325 2.844a.61.61 0 0 1-.28-.065c-2.935-1.444-5.905-3.06-8.83-4.814-.295-.175-.4-.56-.215-.855s.56-.395.86-.215c2.895 1.73 5.835 3.335 8.74 4.765.3.154.435.525.285.835-.1.224-.335.35-.56.35zm67.86 4.91c-.255 0-.495-.16-.585-.416a.62.62 0 0 1 .375-.799c1.45-.525 2.935-1.106 4.415-1.73l4.82-2.044a.63.63 0 0 1 .82.324c.135.32-.01.7-.325.82l-4.83 2.054c-1.5.63-3.005 1.22-4.475 1.75a.63.63 0 0 1-.215.041zm-49.185 2.155c-.05 0-.105-.01-.155-.02-3.175-.84-6.395-1.88-9.575-3.1a.62.62 0 1 1 .44-1.165c3.145 1.2 6.325 2.22 9.45 3.045a.62.62 0 0 1 .445.76c-.075.286-.325.47-.605.47zm29.73 2.38a.63.63 0 0 1-.625-.56.63.63 0 0 1 .555-.69c3.265-.345 6.56-.905 9.8-1.666.35-.084.675.136.75.465.085.335-.125.676-.46.75a81.03 81.03 0 0 1-9.945 1.695c-.025.006-.045.006-.065.006zm-10 .43h-.01c-3.315-.064-6.685-.345-10.025-.824a.62.62 0 0 1-.525-.706c.045-.345.33-.59.705-.53a80.2 80.2 0 0 0 9.87.809.63.63 0 0 1 .61.641.62.62 0 0 1-.625.609z" fill="#d8d5db"/></g><mask id="B" mask-type="alpha" maskUnits="userSpaceOnUse" x="46" y="82" width="365" height="492"><path d="M46.75 82.13h363.688V573.3H46.75V82.13z" class="B C"/></mask><g mask="url(#B)" class="B"><path d="M385.55 494.68c-2.8.75-5.6 2.2-7.85 4.75-1.3 1.5-3 4.3-4.5 7.25l-1.05-24 1.5-.1-.05-3.7c-.25-24.35-2.9-66.7-6.4-108.9 1.25 2.6 2.45 5 3.6 7.15.05.75.05 1.5.2 2.3 1.85 10.1 11.1 66 13.8 99.7.5 6.05.75 11.35.75 15.55zm22.25-123.2v-.1c-2.9-9.45-12.65-37.6-23.75-65.55l12.3-4.2s-36-64.05-57.05-78.15c-.05-.05-.1-.05-.15-.1-7.4-6.9-18.2-11.4-34.35-13.25-.1-13.35.9-35.85 2.05-53.1 8.3-1.9 12.3-11.65 12.85-13.8 1.15-4.4.1-8.05-2.05-10.4.65-5.45 1.75-16.05 1.45-25.15-.25-8.35-1.6-15.4-5.5-16.25.05-.15.15-.25.2-.35 1.3-4.15-1.15-8.75-1.25-8.95l-2.2 1.2c.6 1.05 1.85 4.35 1.05 6.95-3.7-4.1-15.2-5.75-28.1-5.5-18.05.3-38.75 4.45-44.35 10.95-3.9 4.5-2.75 6.95 1.3 8.05a98.47 98.47 0 0 0-.95 11.199c-.6 1.55-1.15 3.15-1.7 4.85-1.45 1-2.85 2.45-3.9 4.7l2.3 1.05c.05-.1.1-.15.15-.25-.6 2.55-1.15 5.15-1.55 8-4.5 31-11.85 61.85 18.9 62.2-.05 3.5-.25 6.9-.6 10.1-.25 2.55-.6 4.95-1.05 7.1-11.7 2.85-20.85 7.35-27.2 13.4-22.6 18.65-51.15 78.55-51.15 78.55l9.6 4.75c-7.1 13.8-14.1 27.9-19.35 39.35-24.3-16.8-67-47.95-79.6-61.6 0-.05-.05-.05-.1-.1.5-5.25-.45-13.75-1.85-18.55 0-.1 0-.2-.05-.35-.1-.25-.2-.4-.25-.6-.1-.3-.2-.65-.3-.9-.25-.65-.45-1.1-.65-1.5-3.35-7.4-8.65-10.3-11.8-20.15-1.65-5.25-5.7-3.1-7.25.4L50 218.83l-3.25 1.45 15.3 34.35c-3.6-1.6-6.75-2.55-8.9-1.8-2.95 1-6.2 15.85-4.8 21.15 1.4 5.25 15.75 22.15 21.1 25.05.4.2.85.35 1.25.4 8.65 12.1 66 80.2 89.05 92 14.3 7.25 25.05 1 28.6-8.3 4.6-7.4 13.05-21.85 22.25-38.55-3 46.5-8.75 98.9-19.6 135.65l3.1.45c-3.05 15.25-5.3 35.3-6.9 55.65 11.3 4.8 22.8 9.15 34.4 13.05 51.75 17.5 105.45 26.25 152.15 23.4.75-2.3 1.1-4.7 1.05-7.25l-.85-34.35c2.5 6.5 5.75 11.85 8.35 13.2 2.75 1.4 15.75-6.55 18.6-11.3 2.8-4.6 4.95-26.7 3.3-32.6-.1-.4-.4-.7-.6-1.05.6-3.3 1.5-10.5 2.5-19.9 3.2-31.7 7-88.65 1.7-108.05z" fill="#d1cdd3"/></g><g class="B"><path d="M280.106 275.57L247.51 254.3s-32.395 59.615-48.37 94.495c-24.285-16.815-66.985-47.95-79.6-61.63-.035-.035-.07-.055-.105-.1.495-5.26-.455-13.735-1.84-18.54-.03-.125-.035-.225-.08-.36-.07-.225-.165-.405-.24-.62-.1-.28-.2-.635-.3-.875-.265-.645-.47-1.115-.655-1.52-3.35-7.355-8.66-10.295-11.8-20.115-2.18-6.855-8.465-1.105-7.845 3.84 0 0 .935 3.2 2 6.3-4.155-1.98-7.745-3.18-10.165-2.365-2.93.985-6.205 15.855-4.8 21.17 1.38 5.23 15.75 22.14 21.13 25.05.4.2.8.325 1.22.4 8.675 12.115 66.025 80.22 89.08 91.98 14.28 7.285 25.005 1 28.6-8.27 10.9-17.695 43.885-75.285 56.355-107.57z" class="D"/><path d="M284.542 238.945c4.94 24.85-14.92 95.565-14.92 95.565l-60.75-29.815s62.64-131.305 75.67-65.75z" fill="#ea3939"/><path d="M410.2 565.53l-.1 2.4c-11.45 2.5-23.65 4.15-36.35 4.85-46.7 2.85-100.4-5.9-152.15-23.4 1.8-26.7 4.6-54.55 8.9-73.35l176.85 3.55c1 11.4 2.2 57.55 2.85 85.95z" class="E"/><path d="M328.468 209.297c39.27 1.295 52.545 14.55 59.315 37.475 7.685 26.03 21.225 183.25 21.225 235.785 0 0-117.52 8.325-182.625-2.345 20.4-68.95 22.62-192.935 23.03-229.87.305-27.715 29.27-42.7 79.055-41.045z" class="F"/><path d="M293.873 145.007c-3.87-2.9-24.05-.27-18.235-41.355 2.115-15 16.195-4.985 26.16-2.985s3.63 45.08 3.63 45.08l-11.555-.74z" class="E"/><path d="M344.117 135.165c-1.675 10.9-5.025 69.8-3.63 83.5s-64.785 17.595-56.13 2.515 2.515-65.065 2.515-65.065l57.245-20.94z" class="D"/><path d="M339.535 136.83l-52.655 19.28s3.555 29.115 1.4 49.6c40.15-3.105 50.455-53.815 51.135-63.58.1-1.84.165-3.615.1-5.3z" fill="#d88344"/><path d="M269.974 133.312c-4.88 33.635-13.165 67.17 27.605 61.65s47.1-57.795 47-67.655c-.635-52.615-65-60.134-74.595 6.005z" class="D"/><path d="M348.965 91.41c.05-.13.16-.22.205-.35 1.325-4.125-1.115-8.72-1.22-8.915l-2.2 1.185c.02.04 2.02 3.845 1.04 6.94-8.93-9.865-62.875-5.66-72.47 5.485-12.2 14.16 25.3 7.776 46.425 4.2 2.96 12.37 16.37 32.856 20.235 35.766l11.555.745s6.305-42.886-3.57-45.056z" class="E"/><path d="M438.988 499.414c2.6-14.4 11.12-102.785 4.215-127.915-.01-.04-.005-.08-.015-.125-4.82-15.73-28.755-83.535-46.085-115.64l-37.345 10.96s31.255 81.57 46.4 110.42c.045.775.045 1.535.195 2.335 2.23 11.9 14.7 87.405 14.55 115.215-2.76.77-5.57 2.22-7.805 4.77-2.845 3.25-7.805 12.584-7.455 16.725.995 11.815 7.56 25.9 12.055 28.215 2.75 1.42 15.7-6.565 18.555-11.27 2.8-4.63 4.96-26.715 3.3-32.605-.1-.405-.38-.73-.585-1.085z" class="D"/><path d="M374.69 223.486c21.065 14.08 57.025 78.125 57.025 78.125l-64.035 21.875s-48.56-137.14 7-100z" class="F"/><path d="M304.308 131.647c.13 1.64-.755 3.045-1.985 3.145s-2.33-1.15-2.46-2.8.755-3.045 1.985-3.14 2.325 1.145 2.46 2.785zm-25.972.69c.13 1.64-.755 3.045-1.985 3.145s-2.33-1.15-2.46-2.785.755-3.05 1.985-3.145 2.33 1.145 2.46 2.785zm32.358-9.9c-3.475-5.335-9.455-4.065-9.515-4.055l-.55-2.44c.315-.065 7.745-1.64 12.16 5.13l-2.095 1.365zm-39.314 3.114l-2.27-1.04c3.37-7.355 10.945-6.88 11.265-6.865l-.175 2.495c-.235-.015-6.18-.33-8.82 5.4zm24.58 37.057c-1.66 0-2.7-.185-2.75-.195l.455-2.455c.46.085 11.435 1.945 17.55-8.23l2.14 1.3c-5.045 8.4-13.17 9.6-17.395 9.6z" class="E"/><path d="M276.74 151.222l6.36-21.68 2.395.7-5.405 18.435 8.755-.115.035 2.5-12.14.16z" fill="#d88344"/><path d="M114.762 284.682l-3.27 1.46-29.35-65.855 3.265-1.46 29.355 65.855z" class="E"/><path d="M334.23 139.446c-3.685 8.3-8.295 16.33 3.27 17.82 11.565 1.495 16.944-11.5 17.6-14.035 3.495-13.57-13.63-20.105-20.87-3.785z" class="D"/><path d="M161.226.002H43.572c-4.1 0-7.425 3.32-7.425 7.42v41.895a7.43 7.43 0 0 0 7.425 7.425h7.165l8.08 10.795c1.795 2.4 5.56 1.685 6.355-1.205l2.62-9.6h93.435c4.1 0 7.42-3.325 7.42-7.425V7.422a7.42 7.42 0 0 0-7.42-7.42z" fill="#4d8dff"/></g><mask id="C" mask-type="alpha" maskUnits="userSpaceOnUse" x="0" y="0" width="520" height="574"><path d="M0 573.3h519.785V0H0v573.3z" class="B C"/></mask><g mask="url(#C)" class="B"><g class="C"><path d="M47.705 13.495H151.73v-2.5H47.705v2.5zm0 11.83h68.7v-2.5h-68.7v2.5zm0 11.83h85.86v-2.5h-85.86v2.5z"/></g><path d="M133.565 140.193H43.57c-4.1 0-7.42 3.325-7.42 7.42v41.895c0 4.1 3.32 7.425 7.42 7.425h7.165l8.08 10.795c1.795 2.4 5.565 1.685 6.355-1.205l2.62-9.6h65.775c4.1 0 7.42-3.325 7.42-7.425v-41.895c0-4.095-3.32-7.42-7.42-7.42z" class="F"/><g class="C"><path d="M47.705 153.685H95.6v-2.5H47.705v2.5zm57.795 0H122v-2.5h-16.5v2.5zm-57.795 11.83H81.72v-2.5H47.705v2.5zm0 11.83h65.715v-2.5H47.705v2.5z"/></g><path d="M103.43 70.058H213a7.42 7.42 0 0 1 7.415 7.42v41.9a7.42 7.42 0 0 1-7.415 7.42h-7.17l-8.08 10.8c-1.795 2.395-5.565 1.68-6.35-1.2l-2.625-9.6H103.43c-4.1 0-7.42-3.325-7.42-7.42v-41.9c0-4.095 3.32-7.42 7.42-7.42z" fill="#ffc84d"/><g class="C"><path d="M164.94 83.55h43.92v-2.5h-43.92v2.5zm-51.515 11.835h95.435v-2.5h-95.435v2.5zm48.545 11.83h46.9v-2.5h-46.9v2.5zm-29.395 0h21.465v-2.5h-21.465v2.5zM293.44 276.82c-19.115 0-34.67 15.555-34.67 34.67s15.555 34.675 34.67 34.675 34.675-15.555 34.675-34.675-15.555-34.67-34.675-34.67zm0 71.845c-20.495 0-37.17-16.675-37.17-37.175s16.675-37.17 37.17-37.17 37.175 16.675 37.175 37.17-16.675 37.175-37.175 37.175z"/></g></g></svg>