<svg xmlns="http://www.w3.org/2000/svg" xmlns:xlink="http://www.w3.org/1999/xlink" width="533" height="521" fill="none" xmlns:v="https://vecta.io/nano"><style><![CDATA[.B{fill:#fff}.C{fill:#232323}.D{fill-rule:evenodd}.E{fill:#ffad69}.F{fill:#4d8dff}]]></style><mask id="A" mask-type="alpha" maskUnits="userSpaceOnUse" x="0" y="53" width="533" height="468"><path d="M.001 53.948h532.614v466.087H.001V53.948z" class="B D"/></mask><g mask="url(#A)" class="D"><path d="M499.715 308.198l-5.05 7.85c-15.35 23.055-34.4 45.2-55.495 65.555l-2.95 2.845a367.59 367.59 0 0 1-9.205 8.45c-5.345 4.905-10.85 9.65-16.45 14.2-2.95 2.5-5.995 4.955-9 7.35-34.895 27.605-72.195 51.755-108.95 69.95-11.395 5.705-22.795 10.8-34.045 15.2-58.705 23.255-113.35 28.705-151.05 5.65-12.005-7.3-22.255-17.5-30.405-30.945l-3.9-6.45c-12.045-20.155-23.55-40.4-33.65-60.755-2.4-4.75-4.645-9.445-6.845-14.2-36.65-78.75-50.605-158.45 1.345-236.85 20.2-30.495 53.355-54.245 93.15-71.05 11.355-4.845 23.2-9.05 35.505-12.7 6.05-1.9 12.145-3.55 18.395-5.045 7.855-2 15.85-3.75 23.95-5.255a406.43 406.43 0 0 1 18.65-3.15l7.8-1.05c18.45-2.345 37.15-3.65 55.755-3.795l7.3-.055c11.25.055 22.395.5 33.395 1.405 2.95.2 5.9.45 8.85.795 56.15 5.455 107.65 21.55 142.65 48.255 7.65 5.85 14.505 12.145 20.45 19 1.105 1.25 2.155 2.5 3.15 3.795.35.4.655.8 1 1.205 7.25 9.095 13.05 18.5 17.405 28.1 22.25 48.45 9.245 101.895-21.755 151.695" fill="#fde6d6"/></g><g class="D"><path d="M386.54 454.638c-13.5 14.14-23.095 34.36-8.585 46.34 16.205 13.375 49.63 10.27 66.9-14.965 11.045-16.12 16.9-41.605 4.655-55.9-10.475-12.24-46.43 7.175-62.98 24.525" fill="#e8e5ea"/><path d="M190.366 450.952c-3.35.145-6.75.25-10.05.25-.35 0-.6.295-.6.65 0 .295.25.6.6.6 3.35 0 6.7-.105 10.1-.25.35 0 .6-.305.6-.65-.05-.3-.35-.6-.65-.6m-20.05.1c-3.4-.1-6.8-.3-10-.5-.45-.05-.65.2-.7.545 0 .355.25.655.6.705l10.05.5c.35 0 .65-.25.65-.605 0-.345-.25-.645-.6-.645m40.05-1.55l-10 .9c-.35 0-.6.295-.6.65.05.35.3.6.65.6h.05l10-.9c.35-.055.6-.35.6-.705-.05-.345-.35-.6-.7-.545m-60.05.05c-3.3-.355-6.65-.85-9.9-1.405a.67.67 0 0 0-.75.505c-.05.345.2.65.55.7 3.25.6 6.6 1.05 9.95 1.45h.1c.3 0 .55-.2.6-.555.05-.345-.2-.65-.55-.695m79.95-2.7l-9.95 1.45c-.35.045-.6.35-.55.695.05.305.35.555.65.555h.05l10-1.5c.3-.05.55-.35.5-.705-.05-.345-.35-.545-.7-.495m-99.65-.7c-3.3-.75-6.55-1.6-9.7-2.5-.35-.1-.7.05-.8.4s.1.7.45.795l9.3 2.455c.15.045.3.045.45.1h.15c.1 0 .2-.055.3-.1l.05-.05c.15-.05.2-.2.25-.355a.71.71 0 0 0-.45-.745m119.35-3.05l-9.75 2h-.1c-.35.05-.55.345-.5.7.05.295.35.495.65.495h.1a194.34 194.34 0 0 0 6.85-1.345c1-.2 2-.4 3-.65.35-.05.55-.4.5-.75-.1-.3-.4-.55-.75-.45m19.5-4.756l-9.7 2.5c-.35.105-.55.405-.45.755.05.295.3.495.6.495.05 0 .1 0 .15-.045l9.75-2.455c.3-.095.5-.445.45-.8-.1-.295-.45-.495-.8-.45m-158.05 2.1c-1.1-.4-2.15-.8-3.25-1.25-2.05-.8-4-1.695-5.95-2.595-.3-.15-.7 0-.85.295-.15.305 0 .705.3.85 2.1 1.005 4.3 1.9 6.5 2.805.9.4 1.85.745 2.8 1.1h.25a.66.66 0 0 0 .6-.4c.1-.3-.05-.65-.4-.805m177.3-7.7c-.65.2-1.3.45-2 .65l-7.55 2.3c-.35.105-.55.4-.45.755.1.3.35.445.6.445h.2l7.45-2.25 2.15-.695c.3-.1.5-.45.4-.805-.1-.295-.45-.495-.8-.4m-195.4-.744l-.35-.25c-2.8-1.6-5.5-3.3-8.1-5.1-.25-.2-.65-.1-.85.2-.2.245-.1.65.15.85 2.6 1.745 5.35 3.5 8.15 5.15l.4.25c.1.045.2.045.3.045.25 0 .45-.095.55-.295.2-.305.05-.705-.25-.85m214.4-5.706l-9.45 3.35a.59.59 0 0 0-.4.755c.1.295.3.445.6.445.05 0 .1 0 .2-.045 3.15-1.05 6.3-2.205 9.45-3.35.35-.105.5-.45.4-.8-.15-.355-.55-.5-.8-.355m19.5-6.994c-.15-.35-.5-.505-.8-.35l-9.35 3.75c-.3.15-.45.495-.35.85a.66.66 0 0 0 .6.4c.05 0 .15-.05.25-.05l9.3-3.8c.35-.15.5-.505.35-.8m-250.35 1.394a87.97 87.97 0 0 1-3.35-2.75c-1.45-1.25-2.8-2.545-4.15-3.795-.25-.25-.65-.25-.9 0a.63.63 0 0 0 0 .895c1.6 1.505 3.25 3.005 5 4.455.85.745 1.7 1.5 2.6 2.195a.55.55 0 0 0 .4.155c.2 0 .35-.1.5-.25.2-.25.15-.65-.1-.905m268.75-9.6c-.15-.345-.55-.45-.85-.295l-9.15 4.2c-.3.1-.45.5-.3.8.1.25.35.4.55.4.1 0 .2-.05.25-.105l9.2-4.2c.3-.145.45-.495.3-.8m-283.15-4.2c-2.2-2.5-4.3-5.145-6.2-7.795-.2-.305-.6-.35-.9-.15-.25.2-.3.6-.1.85 1.75 2.5 3.7 4.95 5.7 7.295.2.205.35.45.55.65a.72.72 0 0 0 .45.2.8.8 0 0 0 .45-.145c.2-.2.25-.455.15-.705 0-.095-.05-.15-.1-.2m301.1-4.845c-.15-.3-.55-.4-.85-.25-2.85 1.545-5.9 3.1-8.9 4.6-.3.15-.4.45-.3.695-.05.05 0 .105 0 .155a.68.68 0 0 0 .55.35c.1 0 .2-.055.3-.1.25-.155.55-.25.8-.405 2.8-1.345 5.5-2.795 8.15-4.195.3-.155.4-.555.25-.85m17.5-9.85c-.15-.305-.55-.4-.85-.255-.55.305-1.05.655-1.6.955-2.3 1.4-4.65 2.745-7.1 4.1-.3.145-.4.545-.2.85.1.2.3.295.55.295.1 0 .2 0 .3-.045l8.7-5.05c.05-.05.1-.105.15-.15.2-.2.2-.45.05-.7m-330.2-1.505c-1.7-2.845-3.25-5.85-4.6-8.845-.15-.3-.55-.45-.85-.3a.64.64 0 0 0-.3.85c1.4 3 2.95 6.05 4.65 8.95.1.2.3.3.55.3.1 0 .2-.05.3-.1.3-.15.4-.55.25-.855m347.25-9.094c0-.05-.05-.105-.05-.15-.2-.3-.6-.355-.85-.2-.2.1-.35.245-.55.35l-4.35 2.845c-1.15.8-2.35 1.555-3.5 2.305-.3.145-.4.55-.2.85a.55.55 0 0 0 .5.3c.1 0 .25-.05.35-.1l8.45-5.5c.2-.155.3-.45.2-.7m16.3-11.8c-.2-.3-.6-.355-.85-.155l-8.1 5.955c-.3.2-.35.55-.15.85.15.15.3.245.5.245.15 0 .25 0 .4-.095l8.1-5.955c.3-.2.35-.6.1-.845m-374.85-6.75a.64.64 0 0 0-.8-.45.71.71 0 0 0-.45.745 135.34 135.34 0 0 0 3 9.655c.1.3.3.45.6.45.05 0 .1 0 .2-.055.3-.095.5-.45.35-.795-1.1-3.1-2.05-6.305-2.9-9.55m390.5-5.954c-.25-.245-.65-.245-.9-.045l-7.7 6.45c-.25.2-.3.6-.1.85.15.15.3.245.5.245.15 0 .25-.045.4-.15 2.7-2.145 5.3-4.345 7.7-6.445.3-.255.3-.6.1-.905m-394.05-13.75a.58.58 0 0 0-.65-.545c-.35.05-.6.345-.55.7.35 3.395.8 6.745 1.35 10 .05.295.35.495.65.495h.1c.35-.045.55-.345.5-.695-.55-3.255-1.05-6.55-1.4-9.955m408.75.106c-.25-.255-.65-.255-.9 0-2.3 2.3-4.75 4.65-7.2 6.95-.25.2-.3.6-.05.85.1.15.3.2.45.2s.3-.05.45-.155l7.25-6.995c.25-.25.25-.65 0-.85m13.55-14.856c-.25-.25-.65-.2-.9.055-2.05 2.5-4.3 5.05-6.6 7.55-.25.25-.2.65.05.895a.55.55 0 0 0 .4.155c.2 0 .35-.105.45-.2 2.35-2.55 4.6-5.105 6.7-7.605.2-.25.15-.65-.1-.85m-423.05-.745l.05-4.455c0-.345-.25-.65-.6-.65s-.65.255-.65.6c-.05 1.5-.05 3.005-.05 4.505 0 1.9.05 3.75.1 5.6a.65.65 0 0 0 .6.6h.05c.35-.055.6-.3.6-.655l-.1-5.545m435.15-15.25c-.3-.2-.65-.15-.85.145-1.85 2.7-3.85 5.45-5.85 8.1-.25.305-.15.705.1.905.1.05.25.1.4.1a.61.61 0 0 0 .5-.25c2-2.65 4-5.4 5.85-8.15.2-.305.15-.705-.15-.85m-434-9.854c-.4-.095-.65.155-.7.505-.45 3.4-.8 6.75-1.1 10.05 0 .35.25.65.6.65h.05c.3 0 .6-.25.6-.555.3-3.295.65-6.645 1.1-9.945.05-.35-.2-.705-.55-.705m444.25-7.445c-.3-.1-.65 0-.85.3-1.45 2.85-3.1 5.8-4.85 8.7-.2.295-.1.7.2.9.1.045.2.045.3.045.25 0 .45-.095.55-.295a143.42 143.42 0 0 0 4.95-8.8c.15-.305 0-.705-.3-.85m-440.65-12.356a.67.67 0 0 0-.75.505l-2 9.85c-.05.35.2.65.5.75h.15c.3 0 .55-.2.6-.5.6-3.25 1.25-6.55 2-9.85.05-.355-.15-.65-.5-.755m448.55-6.094c-.35-.1-.7.045-.8.4-1.05 3.05-2.3 6.2-3.65 9.3-.15.345 0 .7.35.85.05 0 .15.05.25.05.2 0 .45-.15.55-.4 1.35-3.15 2.6-6.3 3.65-9.4.15-.305-.05-.65-.35-.8m-443.35-13.3c-.3-.1-.65.1-.75.445-1 3.205-1.95 6.45-2.8 9.655-.05.345.15.7.45.745.05.05.1.05.2.05.25 0 .5-.195.6-.45.8-3.195 1.75-6.45 2.75-9.645a.64.64 0 0 0-.45-.8m448.65-6.05c-.35-.1-.65.15-.75.445-.7 3.205-1.55 6.45-2.45 9.755-.05.3.1.645.45.75.05 0 .1.05.15.05.3 0 .55-.2.6-.5a254.16 254.16 0 0 0 2.5-9.75c.05-.35-.15-.705-.5-.75m-442.1-12.95c-.35-.105-.7.045-.8.35a243.01 243.01 0 0 0-3.4 9.495c-.15.305.05.65.35.805h.2c.3 0 .5-.155.6-.4l3.4-9.45c.1-.305-.05-.705-.35-.8m445.7-6.85c-.3-.05-.65.2-.7.55-.45 3.3-1 6.595-1.6 9.895-.05.355.15.65.5.755h.1c.3 0 .55-.2.65-.505.6-3.35 1.15-6.7 1.6-9.945 0-.35-.2-.705-.55-.75m-438.1-11.75c-.3-.15-.65 0-.8.345l-3.95 9.255c-.1.295.05.7.35.8a.45.45 0 0 0 .25.05c.25 0 .45-.15.55-.4 1.25-3.055 2.6-6.155 3.95-9.2a.62.62 0 0 0-.35-.85m439.85-8.25c-.3.045-.6.245-.65.6-.15 3.35-.35 6.7-.65 10-.05.35.2.65.55.695h.05c.3 0 .6-.245.6-.6.35-3.295.55-6.645.7-10.05.05-.295-.25-.6-.6-.645m-431.2-9.9c-.3-.15-.7-.055-.85.25l-4.4 9.045c-.15.355 0 .705.3.85.1.055.15.055.25.055.25 0 .45-.1.55-.35l4.45-9a.64.64 0 0 0-.3-.85m431.8-9.555c0-.345-.3-.595-.65-.595s-.6.3-.6.65c.15 3.3.25 6.65.25 10 0 .35.3.65.6.65.35 0 .65-.3.65-.65 0-3.35-.1-6.75-.25-10.055m-422.3-8.195c-.3-.15-.7-.05-.85.25-1.7 2.945-3.3 5.95-4.85 8.85-.15.3-.05.65.25.8.1.05.2.1.3.1.2 0 .45-.1.55-.35l4.85-8.8c.15-.3.05-.65-.25-.85m420.4-11.9c-.05-.35-.35-.6-.7-.5-.35.05-.55.35-.5.695.45 3.305.85 6.655 1.15 9.955.05.35.3.55.65.55h.05c.35 0 .6-.3.55-.65-.3-3.35-.7-6.7-1.2-10.05m-410.15-5.35c-.25-.2-.65-.1-.85.2l-5.2 8.6c-.2.3-.1.65.2.85.1.05.2.1.3.1.25 0 .45-.1.55-.3l5.2-8.6c.2-.305.1-.65-.2-.85m408.45-4.95h-.05c-.55-3.15-1.3-6.3-2.05-9.505-.05-.345-.4-.545-.75-.445-.3.05-.55.4-.45.75.75 3.05 1.4 6.1 2 9.15.05.2.1.445.15.65.05.3.3.5.6.5h.1c.35-.1.55-.4.5-.75 0-.1-.05-.25-.05-.35m-397.2-12.2a.59.59 0 0 0-.85.15l-.25.35-5.55 8.345c-.2.305-.15.705.15.905.1.05.25.1.35.1a.55.55 0 0 0 .5-.3l5.6-8.35.25-.35a.65.65 0 0 0-.2-.85m391.8-9.3c-.75-2.5-1.55-4.95-2.35-7.35-.1-.35-.5-.5-.8-.4-.35.15-.5.5-.4.8a206.29 206.29 0 0 1 2.7 8.4c.1.4.25.75.35 1.15.1.3.35.45.6.45h.2c.3-.1.5-.45.4-.8-.2-.75-.45-1.505-.7-2.25m-380.25-7.15c-.3-.2-.7-.15-.9.15l-5.8 8.2c-.2.25-.1.65.15.85a.6.6 0 0 0 .4.1.6.6 0 0 0 .5-.255l5.8-8.195c.2-.3.1-.65-.15-.85m11.9-16.2c-.3-.2-.65-.15-.9.1l-6 8.1c-.2.25-.1.65.15.85a.54.54 0 0 0 .35.15c.2 0 .4-.105.55-.3l5.95-8.05c.2-.25.15-.65-.1-.85m362.45 6.55c-.3-.75-.65-1.55-1-2.35-.15-.4-.35-.85-.55-1.3-.75-1.85-1.6-3.75-2.45-5.6-.15-.3-.5-.45-.85-.3-.3.15-.45.5-.3.8l1.75 3.9c.4.85.75 1.7 1.05 2.5.4.85.75 1.65 1.05 2.5l.15.3c.1.25.3.4.55.4.1 0 .15 0 .25-.05.25-.1.45-.35.4-.65 0-.05 0-.105-.05-.15m-350.1-22.455c-.3-.195-.65-.145-.9.105-2.05 2.5-4 5.1-6 7.65-.05.1-.15.15-.2.25-.25.3-.2.7.1.9a.54.54 0 0 0 .35.15c.15 0 .3-.05.4-.15l.1-.1 6.25-7.9c.2-.25.15-.65-.1-.905m341.7 4.155l-1.9-3.5c-.95-1.8-1.95-3.55-3-5.3-.15-.3-.55-.4-.85-.25-.3.2-.4.55-.2.85 1.05 1.8 2.05 3.65 3.1 5.55l1.7 3.25c.15.2.35.3.55.3.1 0 .2 0 .3-.055.3-.145.45-.545.3-.845m-328.85-19.6c-.3-.2-.65-.15-.9.1l-6.5 7.65c-.2.3-.2.7.1.9.1.1.25.15.4.15s.35-.1.45-.25l6.5-7.65c.2-.25.2-.65-.05-.9m318.65 2.2c-1.8-2.8-3.7-5.55-5.65-8.3-.2-.3-.6-.35-.9-.15a.69.69 0 0 0-.15.9c1.95 2.7 3.9 5.45 5.7 8.25.1.15.3.25.5.25.1 0 .25 0 .35-.1.3-.15.35-.55.15-.85m-305.25-17.15c-.25-.2-.65-.2-.85.05-2.3 2.4-4.55 4.9-6.8 7.4-.25.3-.2.65.05.9.1.1.25.15.4.15s.35-.05.45-.2l6.8-7.4c.25-.25.2-.65-.05-.9m293.5.85c-2.1-2.65-4.3-5.25-6.5-7.75-.2-.25-.6-.25-.85-.05-.3.25-.3.65-.05.9 2.15 2.45 4.35 5.05 6.4 7.65.15.15.3.25.5.25.15 0 .25-.05.4-.15.25-.2.3-.6.1-.85m-279.4-15.15c-.25-.25-.6-.25-.85 0-2.35 2.25-4.75 4.65-7.15 7.095-.25.255-.25.655 0 .855.1.15.25.2.45.2a.61.61 0 0 0 .45-.2l7.1-7.05c.25-.25.25-.65 0-.9m266.1.05c-2.35-2.4-4.75-4.8-7.2-7.05-.25-.25-.65-.25-.9 0-.2.25-.2.65.05.9 2.45 2.25 4.85 4.65 7.15 7 .1.1.25.2.45.2.15 0 .3-.05.4-.2.25-.25.25-.65.05-.85m-251.2-13.55c-.25-.25-.65-.3-.9-.05l-5.35 4.7c-.45.35-.85.75-1.25 1.15-.3.25-.65.5-.95.8-.25.245-.25.65-.05.9.15.1.3.2.5.2.15 0 .3-.05.4-.15l1.65-1.5 1.8-1.65c1.35-1.205 2.7-2.35 4.05-3.5.25-.25.3-.65.1-.9m236.5-.2c-2.55-2.2-5.2-4.3-7.8-6.35-.3-.2-.7-.15-.9.1-.2.3-.15.7.1.895 2.65 2.005 5.25 4.155 7.8 6.305.1.1.25.15.4.15s.35-.1.45-.25c.25-.25.2-.65-.05-.85m-220.8-12.3c-.2-.25-.6-.35-.85-.1-2.65 1.9-5.3 4-8 6.1-.25.25-.3.6-.1.9.15.15.3.25.5.25.15 0 .25-.05.4-.15 2.65-2.15 5.3-4.2 7.95-6.1.25-.205.3-.6.1-.9m204.85 0c-2.75-1.95-5.55-3.8-8.4-5.6a.65.65 0 0 0-.85.2c-.2.3-.1.7.2.85 2.8 1.8 5.6 3.65 8.35 5.55.1.1.25.1.35.1.2 0 .4-.05.5-.25.2-.3.15-.65-.15-.85m-188.15-11.2c-.2-.25-.6-.35-.85-.2-2.85 1.75-5.7 3.55-8.5 5.45-.3.2-.35.6-.15.9.1.15.3.25.5.25.15 0 .25-.05.35-.1a167.92 167.92 0 0 1 8.45-5.4c.3-.2.35-.6.2-.9m171.15.45l-8.9-4.805c-.3-.145-.7 0-.85.305s0 .65.3.845c2.95 1.505 5.9 3.055 8.8 4.705.1.1.2.1.3.1.25 0 .45-.1.55-.3.2-.3.1-.7-.2-.85m-153.5-9.95c-.15-.35-.5-.45-.85-.3a183.9 183.9 0 0 0-8.95 4.55c-.3.2-.4.55-.25.85.1.25.35.35.55.35.1 0 .2-.05.3-.1 2.95-1.6 5.95-3.1 8.9-4.55.3-.15.45-.5.3-.8m135.5.8l-9.25-3.95c-.3-.1-.7.05-.8.35-.15.345 0 .7.35.85 3.1 1.2 6.2 2.55 9.2 3.9a.45.45 0 0 0 .25.05c.25 0 .5-.15.6-.35a.62.62 0 0 0-.35-.85m-117.65-8.7c-3.15 1.05-6.35 2.25-9.45 3.5-.35.15-.5.5-.35.795.1.255.35.405.55.405.1 0 .2 0 .25-.05 3.1-1.25 6.25-2.45 9.4-3.5.3-.1.5-.45.35-.75a.58.58 0 0 0-.75-.4m98.95 1.25c-3.2-1.1-6.4-2.1-9.6-3a.64.64 0 0 0-.8.45c-.1.3.1.65.45.75 3.15.9 6.4 1.9 9.55 3h.2a.65.65 0 0 0 .6-.4c.1-.355-.05-.7-.4-.8m-79.5-6.45c-3.3.645-6.6 1.4-9.8 2.3-.35.05-.55.4-.45.75.05.25.3.45.6.45h.15a158.22 158.22 0 0 1 9.75-2.25c.3-.05.55-.4.5-.75-.1-.3-.4-.55-.75-.5m60.1 1c-3.3-.7-6.65-1.35-9.9-1.85-.35-.05-.7.2-.75.5-.05.35.2.7.55.75a178.03 178.03 0 0 1 9.85 1.8c.05.05.1.05.1.05.3 0 .55-.2.65-.5.05-.35-.15-.65-.5-.75M297.466.15h-.05a166.67 166.67 0 0 0-10.05.9c-.35.05-.6.35-.55.7a.65.65 0 0 0 .65.55h.05a165.02 165.02 0 0 1 10-.9c.3 0 .6-.3.55-.655 0-.295-.3-.595-.6-.595m20.1.4c-3.3-.3-6.7-.5-10.05-.55-.35 0-.65.25-.65.6s.25.65.6.65c3.35.05 6.7.25 10 .55h.05c.35 0 .6-.25.65-.6 0-.355-.25-.65-.6-.65" fill="#d8d5db"/><path d="M497.317 135.05l-6.5 11.3-.85 1.45-9.405 16.25-2.045 3.6-70.3 121.7-92.2-159.65h184.4l-3.1 5.35zm-185.6-7.85l96.5 167.15 12.9-22.3 83.65-144.85h-193.05z" class="B"/><path d="M342.815 382.1c.15.55-.1 1.355-.65 2.35-1.25 2.35-4.245 5.7-7.395 8.45-.655.555-1.305 1.1-1.955 1.55-1.9 1.55-3.75 2.755-5.2 3.2-5.1 1.7-27.15-1.2-32.5-4.1a3.93 3.93 0 0 1-.85-.65c-2.195.15-5.45.2-9.4 0-1.8-.095-3.75-.25-5.85-.55-4.95-.55-10.6-1.7-16.7-3.65-3-.895-6.15-2.05-9.35-3.45-3-1.35-6.1-2.9-9.2-4.7-.75-.4-1.3-.9-1.95-1.295l1.85 13.645.55 3.7 1.7 10.5c2.35 13.55 5.05 26.3 8.3 37.7.3 1.2.65 2.405 1 3.55l-3.1.45c.25 1.15.45 2.355.65 3.55 2.5 13.5 4.4 30.15 5.8 47.25-58.7 23.25-113.35 28.7-151.05 5.65-12-7.3-22.25-17.5-30.4-30.95l-3.9-6.45.8-17.05c-.95-.1-1.45-.1-1.45-.1 0-8.15.35-18.85.9-31.2.05-.5.05-1 .05-1.55l.65-10.85.8-14.2 1.5-22c-12.2-3.25-22.4-6.75-28.15-10.25-7.5-4.55-10.35-10.9-10.15-17.15-.1-1.25-.1-2.6.2-4 2.85-9.45 12.65-37.6 23.75-65.55l-12.3-4.2s35.95-64.05 57.05-78.15c.1-.05.15-.1.25-.15 7.45-6.9 18.2-11.35 34.3-13.15.1-13.35-.95-35.9-2.05-53.15-5.25-1.2-8.8-5.55-10.8-9.15-.25-.4-.5-.8-.65-1.15-.8-1.55-1.25-2.85-1.45-3.5-1.1-4.4-.05-8.05 2.1-10.4-.45-3.65-1.1-9.65-1.35-15.95-.5-11.6.15-24.3 5.4-25.45-.05-.15-.15-.25-.2-.35-1.35-4.15 1.1-8.75 1.2-8.9l2.2 1.15c0 .05-2 3.85-1.05 6.95 4.2-4.65 18.35-6.15 33.2-5.3.85 0 1.75.1 2.6.15 3.05.25 6.1.55 9.1 1a26.98 26.98 0 0 1 2.9.45c.5.05 1.05.15 1.55.25 3.25.55 6.35 1.25 9.2 2.05 4.9 1.35 9 3.05 11.75 5 .9.6 1.6 1.25 2.2 1.9 2.5 2.9 2.9 4.95 1.8 6.3-.65.75-1.7 1.3-3.1 1.7.6 4.2.85 7.85.95 11.2l.9 2.5.75 2.35c.05.05.1.05.15.1.3.25.6.45.9.7 1.1 1 2.1 2.25 2.85 3.9l-2.25 1.05c-.05-.1-.1-.15-.15-.25.6 2.55 1.15 5.2 1.55 8l1.9 12.35.6 4.6c.45 3.1.85 6.15 1.1 9.05.1.9.2 1.75.2 2.6 1.05 13.2-.2 24.15-8.1 29.65-1.5 1.1-3.3 2-5.35 2.6-2.6.85-5.7 1.3-9.3 1.35.1 3.5.3 6.9.6 10.1.15 1.25.3 2.5.5 3.65.15 1.2.35 2.4.6 3.5 13.35 3.2 23.4 8.6 29.75 15.95.3.3.65.6.95.95 3.55 3.45 7 8.755 10.25 15.1 4.1 7.95 7.95 17.605 11.35 27.25.25.75.5 1.55.8 2.3.25.85.55 1.65.8 2.5 1.4 4.15 2.7 8.3 3.9 12.255l2.5 8.495c3.85 13.555 6.1 23.555 6.1 23.555l-6.1 1.445-2.5.6-1.8.455 1.8 7.145c.05.25.15.55.2.805l2.3 9.295c3.85 15.65 7.1 30.15 8.55 39.75 4.3 3.55 7.45 9.1 12.1 14.255 4.7 5.195 11.05 9.895 21.8 11.745.05 0 .05.05.1.05 4.205-3.3 12-7.195 16.75-8.645l1.7-.405c.4-.1.755-.15 1.05-.15 2.005-.4 2.3-.25 3.5.5.45.35 1.05.8 2 1.35 3.9 2.3 8 4.45 11.55 6.55 4.4 2.555 7.85 5 8.85 7.6.1.155.15.35.2.5" fill="#d1cdd3"/><path d="M357.668 367.426c-3.565-2.135-2.525-2.405-6.555-1.665-4.35.805-13.7 5.295-18.445 9.035-.05-.005-.085-.03-.135-.04-21.44-3.675-25.2-18.84-33.88-26.02-4.805-31.48-29.015-117.15-29.015-117.15l-36.48 13.565c5.315 36.095 26.705 104.745 32.255 120.235a15.12 15.12 0 0 0 3.4 4.575c1.82 3.845 5.1 7.555 10.375 10.6 21.87 12.645 42.57 12.82 50.5 12.315a3.98 3.98 0 0 0 .875.66c5.365 2.93 27.375 5.8 32.515 4.115 5.225-1.715 15.925-12.545 15.155-15.545-1.25-4.9-11.62-9.34-20.555-14.7" class="E"/><path d="M236.905 208.447c-10.3 23.15-6.515 96.505-6.515 96.505l65.825-15.7s-32.15-141.885-59.3-80.815" fill="#377adb"/><path d="M292.614 484.4c-11.395 5.705-22.8 10.8-34.05 15.2-58.7 23.25-113.345 28.7-151.05 5.65l1.9-54.45.25-3.1 20.2-.4h.9l.05-.05 155.7-3.1a101.97 101.97 0 0 1 1 4.705c2.1 10.2 3.75 22.445 5.1 35.545" class="C"/><path d="M188.55 177.43c-39.27 1.295-52.545 14.55-59.315 37.475-7.7 26.03-21.23 183.25-21.23 235.785 0 0 117.525 8.33 182.63-2.345-20.415-68.955-22.62-192.935-23.03-229.875-.305-27.7-29.275-42.685-79.055-41.04" class="F"/></g><mask id="B" mask-type="alpha" maskUnits="userSpaceOnUse" x="0" y="0" width="533" height="521"><path d="M0 520.035H532.615V0H0V520.035Z" class="B D"/></mask><g mask="url(#B)" class="D"><path d="M194.965 314.3h57.2v-69.35h-57.2v69.35zm-2.5 2.5h62.2v-74.35h-62.2v74.35z" class="B"/><path d="M223.145 113.14c3.865-2.915 24.045-.27 18.235-41.355-2.12-15-16.195-4.985-26.16-2.985s-3.63 45.08-3.63 45.08l11.555-.74z" class="C"/><path d="M172.9 103.298c1.675 10.9 5.025 69.805 3.63 83.5s64.785 17.6 56.125 2.515-2.5-65.065-2.5-65.065l-57.245-20.94z" class="E"/><path d="M177.48 104.963l52.655 19.28s-3.555 29.1-1.4 49.6c-40.15-3.105-50.455-53.815-51.13-63.58-.115-1.84-.17-3.615-.115-5.3" fill="#d88344"/><path d="M247.04 101.442c4.88 33.635 13.165 67.175-27.605 61.65s-47.105-57.795-47-67.65c.635-52.615 65-60.14 74.595 6" class="E"/><path d="M242.693 63.887c-9.595-11.145-63.54-15.35-72.47-5.48-.98-3.1 1.02-6.9 1.04-6.945l-2.2-1.185c-.105.2-2.54 4.785-1.215 8.915.045.13.155.22.2.35-9.87 2.175-3.57 45.055-3.57 45.055l11.555-.74c3.865-2.9 17.28-23.4 20.235-35.765 21.125 3.575 58.62 9.96 46.425-4.205" class="C"/><path d="M236.955 368.613c-4.13.23-20.155 3.015-25.78 1.7-18.905-4.415-67.625-26.27-93.85-38.485 16.135-35.025 39.885-97.015 39.885-97.015l-37.345-10.96c-17.33 32.105-41.265 99.9-46.085 115.645-.27 1.4-.3 2.735-.205 4.005-.17 6.225 2.68 12.58 10.165 17.14 20.76 12.645 99.075 24.915 120.765 27.3.4.8.93 1.545 1.8 2.03 5.305 2.98 29.445 5.2 34.4 6.1 6.225 1.1 25.12 2.7 24.305.17-1.335-4.145-8.34-28.745-28.055-27.64" class="E"/><path d="M142.28 191.62c-21.065 14.08-57.025 78.125-57.025 78.125l64.035 21.875s48.56-137.14-7-100" class="F"/><g class="C"><path d="M212.7 99.78c-.13 1.64.755 3.045 1.98 3.145s2.33-1.15 2.465-2.8S216.4 97.1 215.17 97c-1.225-.095-2.33 1.15-2.46 2.8m25.97.668c-.13 1.64.755 3.045 1.98 3.145s2.33-1.15 2.465-2.8c.13-1.634-.76-3.044-1.985-3.144s-2.33 1.15-2.46 2.8m-32.36-9.893l-2.095-1.365c4.42-6.77 11.84-5.2 12.16-5.13l-.545 2.44c-.24-.05-6.065-1.24-9.52 4.055m39.317 3.118c-2.645-5.755-8.585-5.44-8.82-5.415l-.175-2.495c.32-.02 7.9-.485 11.265 6.865l-2.27 1.045zm-24.583 37.053c-4.225 0-12.35-1.2-17.395-9.6l2.14-1.3c6.115 10.17 17.085 8.315 17.55 8.23l.455 2.455c-.04.01-1.095.195-2.75.195"/></g><path d="M240.28 119.355l-12.14-.165.035-2.5 8.755.12-5.405-18.435 2.395-.705 6.36 21.685z" fill="#d88344"/><path d="M182.788 107.577c3.68 8.3 8.295 16.33-3.27 17.82s-16.945-11.5-17.6-14.035c-3.5-13.574 13.625-20.104 20.87-3.785" class="E"/><path d="M495.89 407.085H17.45c-3.905 0-7.1-3.195-7.1-7.1s3.195-7.1 7.1-7.1h478.44c3.905 0 7.1 3.195 7.1 7.1s-3.195 7.1-7.1 7.1" class="B"/><path d="M194.512 407.085h-180.6c-3.905 0-7.1-3.195-7.1-7.1s3.195-7.1 7.1-7.1h180.61c3.905 0 7.1 3.195 7.1 7.1s-3.195 7.1-7.1 7.1" fill="#d8d5db"/><path d="M472.464 381.61h-148.4c-5.665 0-9.425-4.6-8.395-10.27l16.185-89.005c1.035-5.675 6.465-10.27 12.14-10.27H492.39c5.67 0 9.43 4.595 8.4 10.27l-16.185 89.005c-1.035 5.67-6.465 10.27-12.14 10.27" fill="#2b2b2b"/><path d="M476.09 381.61h-148.4c-5.665 0-9.425-4.6-8.395-10.27l16.185-89.005c1.03-5.675 6.465-10.27 12.135-10.27H496.01c5.675 0 9.435 4.595 8.405 10.27l-16.2 89.005c-1.03 5.67-6.465 10.27-12.135 10.27" class="C"/><path d="M426.565 344.848H390.62l6.545-35.995h35.955l-6.555 35.995zm-31.5-38.495l-7.45 40.995h41l7.5-40.995h-41.05z" class="B"/><path d="M298.025 384.458a8.46 8.46 0 0 0 8.435 8.43h155.245a8.46 8.46 0 0 0 8.435-8.43H298.025z" class="C"/><path d="M252.922 384.458c0 4.635 3.8 8.43 8.43 8.43h61.05a8.46 8.46 0 0 0 8.435-8.43h-77.915z" fill="#2b2b2b"/><path d="M423.45 108.227a9.52 9.52 0 0 0-9.515 9.52h19.035c0-5.255-4.26-9.52-9.52-9.52" fill="#377adb"/><path d="M423.46 108.23v92.43c0 5.265-4.27 9.5-9.535 9.5H344.72v-92.38c0-5.27 4.265-9.54 9.495-9.54h69.245z" class="F"/><path d="M404.43 200.66l-69.24-.01c0 5.255 4.265 9.515 9.525 9.515l69.205-.015c-5.26 0-9.5-4.225-9.5-9.5" fill="#6ea9ff"/><g class="B"><use xlink:href="#D"/><use xlink:href="#D" y="9.47"/><use xlink:href="#D" y="18.95"/><use xlink:href="#D" y="28.41"/><use xlink:href="#D" y="37.88"/><use xlink:href="#D" y="47.35"/><use xlink:href="#D" y="56.82"/><use xlink:href="#D" y="66.29"/></g><path d="M520.183 157.892c-13.25 13.25-34.74 13.25-47.995 0s-13.25-34.74 0-47.995 34.745-13.255 47.995 0 13.25 34.74 0 47.995" fill="#ffc84d"/><path d="M496.19 133.896l26.965 26.965c-14.8 14.795-39.145 14.795-53.935 0a38.18 38.18 0 0 1-11.025-23.64l37.995-3.325z" class="C"/><path d="M496.19 133.896l-37.88 4.415a38.06 38.06 0 0 1 .68-12.81c.945-4.2 2.595-8.2 4.885-11.86l32.315 20.255z" class="B"/><path d="M330.07 84.8h-28.75c-3.7 0-6.75-3.035-6.75-6.75V49.305c0-3.7 3.04-6.75 6.75-6.75h28.75c3.7 0 6.75 3.04 6.75 6.75V78.05c0 3.715-3.04 6.75-6.75 6.75" class="C"/><path d="M321.667 93.203h-28.75c-3.7 0-6.75-3.035-6.75-6.75V57.708c0-3.7 3.04-6.75 6.75-6.75h28.75c3.7 0 6.75 3.04 6.75 6.75v28.745c0 3.715-3.04 6.75-6.75 6.75" fill="#ff4e4a"/></g><defs ><path id="D" d="M355.07 123.75h58.05v-2.5h-58.05v2.5z"/></defs></svg>