<svg xmlns="http://www.w3.org/2000/svg" width="542" height="609" fill="none" xmlns:v="https://vecta.io/nano"><path d="M538.5 395.15c-7.218 40.645-27.977 77.652-58.9 105a223.23 223.23 0 0 1-34.5 25c-43.25 26.15-96.85 42-152.65 55l-9.55 2.15c-8.294 1.884-16.802 2.657-25.3 2.3-88.75-3.7-149.2-135.25-168-273.7C73.2 187.65 100.65 48.05 223.55 41.75c46.15-2.3 100 20.7 150 57.7a407.37 407.37 0 0 1 10.75 8.2h0l2.2 1.75c93.35 74.4 169.6 195.05 152 285.75z" fill="#fde6d6"/><path d="M102.9 511.2c6.95 14.05 9.5 31.85-4.45 37.55-15.6 6.4-40.5-3.9-47.7-27.35-4.65-15-3.05-35.9 10-43.95C71.4 470.55 94.6 494 102.9 511.2z" fill="#f5f9fd"/><path d="M484.6 196.1c-6.25-5.45-11.25-13.55-5.95-19s19.6-5.9 28 4.05c5.35 6.35 9.05 16.75 5 23.1-3.6 5.4-19.25-1.5-27.05-8.15z" fill="#ffad69"/><path fill-rule="evenodd" d="M189.6 115.4a165.02 165.02 0 0 0-10-.75.65.65 0 0 1-.709-1.001.65.65 0 0 1 .709-.249c2.997 0 6.077.33 9.1.653l.9.097c.17.012.326.094.43.228a.6.6 0 0 1 .12.472.65.65 0 0 1-.55.55zm-49.5 3.6a.7.7 0 0 1-.6-.45.65.65 0 0 1 .45-.8c3.15-.85 6.45-1.6 10-2.25a.6.6 0 0 1 .75.45.65.65 0 0 1-.5.75c-3.3.65-6.55 1.4-9.7 2.25l-.4.05zm79.1 2c3.2.85 6.4 1.75 9.6 2.75h.45a.6.6 0 1 0 0-1.2c-3.25-1.05-6.5-1.95-9.65-2.8a.65.65 0 0 0-.54.055c-.163.096-.277.258-.3.445a.7.7 0 0 0 .45.75zm-97.95 4.8a.7.7 0 0 1-.55-.35.65.65 0 0 1 .3-.85c3-1.35 6.1-2.65 9.3-3.8a.6.6 0 0 1 .8.35.65.65 0 0 1-.35.8c-3.15 1.15-6.25 2.45-9.2 3.8l-.3.05zm117.1 1.1c3.1 1.1 6.25 2.3 9.35 3.5l.45.05a.6.6 0 1 0 0-1.2l-9.4-3.5a.7.7 0 0 0-.8.35.65.65 0 0 0 .4.8zm-134.4 8.9a.55.55 0 0 1-.5-.25.6.6 0 0 1 0-.85c2.75-1.95 5.55-3.8 8.45-5.45a.65.65 0 0 1 .65 1.1c-2.85 1.65-5.7 3.45-8.35 5.35-.06.046-.128.08-.2.1h-.05zm161.85 2.55h.35a.6.6 0 0 0 .5-.3.6.6 0 0 0 .017-.463c-.056-.15-.17-.272-.317-.337-3-1.45-6.05-2.8-9.15-4.15a.6.6 0 0 0-.463-.017c-.15.056-.272.17-.337.317a.65.65 0 0 0 .3.85 251.11 251.11 0 0 1 9.1 4.1zM88.92 148.9a.61.61 0 0 1-.371-.01.6.6 0 0 1 0-.85c2.35-2.45 5-5 7.3-6.95a.65.65 0 0 1 .9 0 .65.65 0 0 1 0 .9c-2.45 2.15-5 4.45-7.2 6.85a.65.65 0 0 1-.629.06zm212.48 8.5h-.3c-2.8-1.75-5.7-3.45-8.6-5-.188-.116-.3-.323-.292-.544s.13-.42.325-.525a.62.62 0 0 1 .617.019l4.543 2.64 4.057 2.36a.6.6 0 0 1 0 .85c-.087.11-.212.18-.35.2zm-225.3 7.1h.35a.55.55 0 0 0 .6-.1c1.63-2.643 3.376-4.86 5.136-7.093h0l.714-.907a.6.6 0 0 0 0-.9.6.6 0 0 0-.85 0c-2.05 2.6-4.05 5.3-5.95 8.15a.6.6 0 0 0 0 .85zm242.15 3.75a.4.4 0 0 1-.35 0l-8.3-5.6c-.3-.18-.38-.56-.2-.85a.62.62 0 0 1 .85-.2c2.833 1.8 5.633 3.65 8.4 5.55a.65.65 0 0 1 0 .85.5.5 0 0 1-.4.25zm-251.6 13.5a.6.6 0 0 1-.3-.85c1.4-3.05 2.95-6.05 4.55-8.95a.65.65 0 0 1 1.216-.139.65.65 0 0 1-.116.739c-1.6 2.85-3.1 5.85-4.55 8.9-.065.147-.187.26-.337.317a.6.6 0 0 1-.463-.017zm283.25 10.5a.55.55 0 0 0 .4 0c.14.008.28-.027.4-.1a.6.6 0 0 0 0-.85c-1.8-1.38-3.454-2.742-5.083-4.083h-.001l-.004-.003L342.9 185a.65.65 0 0 0-.8 1c1.933 1.38 3.676 2.833 5.425 4.292l2.375 1.958zM59.6 200.6a.7.7 0 0 1-.4-.8c1.05-3.25 2.15-6.45 3.35-9.5a.7.7 0 0 1 .8-.35.6.6 0 0 1 .35.8c-1.15 3-2.25 6.2-3.3 9.4a.65.65 0 0 1-.8.45zm305.95 4.732a.68.68 0 0 1-.199-.032c-2.45-2.25-5-4.45-7.55-6.6a.7.7 0 0 1 0-.9.65.65 0 0 1 .9 0l7.55 6.6a.7.7 0 0 1 0 .9.65.65 0 0 1-.701.032zM54.18 219.738a.6.6 0 0 0 .42.262c.2.015.377-.054.512-.188a.65.65 0 0 0 .188-.512c.7-3.25 1.45-6.55 2.3-9.75a.65.65 0 0 0-.45-.75.6.6 0 0 0-.8.45l-.485 2.078-1.765 7.922a.6.6 0 0 0 .08.488zM394.15 233.4a.55.55 0 0 1-.45 0c-2.25-2.45-4.6-5-6.9-7.25a.65.65 0 0 1 0-.9.7.7 0 0 1 .9 0l2.993 3.18h.001l3.906 4.12a.65.65 0 0 1 0 .9c-.152.027-.308.01-.45-.05zm-343.5 5.65a.65.65 0 0 0 .55.7.65.65 0 0 0 .7-.5c.4-3.45.85-6.8 1.35-10a.55.55 0 0 0-.5-.7.6.6 0 0 0-.7.5c-.55 3.3-1 6.65-1.4 10zm356.8 9.35c-.16.067-.34.067-.5 0l-6.55-7.6a.6.6 0 0 1 0-.85.6.6 0 0 1 .9 0c1.59 1.774 3.206 3.658 4.83 5.55l1.72 2a.65.65 0 0 1 0 .9.55.55 0 0 1-.4 0zM49.157 259.507c.114.124.275.194.443.193a.65.65 0 0 0 .65-.55c.06-1.35.17-2.7.28-4.064.16-2.004.32-3.997.32-5.936a.7.7 0 0 0-.6-.7.6.6 0 0 0-.65.6l-.17 2.136c-.214 2.605-.43 5.234-.43 7.864a.6.6 0 0 0 .157.457zm370.993 4.543a.6.6 0 0 1-.5 0l-6.15-7.9a.6.6 0 0 1 0-.85.6.6 0 0 1 .9 0l1.85 2.317c1.424 1.766 2.874 3.566 4.3 5.583a.65.65 0 0 1 0 .9l-.4-.05zM49 279.15a.6.6 0 0 0 .6.6h.05c.168.001.33-.07.443-.193a.6.6 0 0 0 .157-.457v-10a.6.6 0 0 0-.65-.6.6.6 0 0 0-.6.6v10.05zm382.6 1.2a.8.8 0 0 1-.55 0l-5.65-8.25a.6.6 0 0 1 0-.85.65.65 0 0 1 .9 0c2 2.75 3.9 5.55 5.7 8.25a.65.65 0 0 1 0 .85c-.128.056-.273.056-.4 0zm10.1 16.7a.55.55 0 0 0 .5.3l.35-.3a.6.6 0 0 0 0-.85c-1.45-2.85-3.2-5.7-5-8.6a.65.65 0 0 0-.85 0 .7.7 0 0 0 0 .9c.96 1.7 1.974 3.42 2.988 5.13l2.012 3.42zm-391.3 2.7a.6.6 0 0 1-.6-.55c0-2.042-.18-4.085-.357-6.084l-.293-3.916a.65.65 0 0 1 .6-.65.6.6 0 0 1 .65.6c0 2.33.206 4.713.414 7.13l.236 2.87a.6.6 0 0 1-.157.457c-.114.124-.275.194-.443.193l-.05-.05zm400.7 14.9a.75.75 0 0 0 .6.35v-.05a.65.65 0 0 0 .3-.85c-1.45-2.95-3-5.95-4.6-8.95a.65.65 0 0 0-.85-.25.65.65 0 0 0 0 .85c1.6 3 3.15 6 4.55 8.9zM52.5 319.7a.65.65 0 0 1-.65-.55l-1.15-10a.6.6 0 0 1 .55-.7.65.65 0 0 1 .7.55l1.15 10a.6.6 0 0 1-.55.7h-.05zM459 332.95a.65.65 0 0 0 .6.4l.2-.05c.156-.056.28-.173.348-.324a.6.6 0 0 0 .002-.476c-1.15-3.1-2.45-6.2-3.8-9.3a.65.65 0 0 0-.85-.3c-.147.065-.26.187-.317.337s-.05.317.017.463c1.35 3.1 2.6 6.2 3.8 9.25zM55.5 339.5a.6.6 0 0 1-.6-.5c-.6-3.3-1.15-6.65-1.65-10a.65.65 0 0 1 .55-.75.65.65 0 0 1 .7.55l1.195 7.5.405 2.5a.65.65 0 0 1-.5.75l-.1-.05zm410.2 12.35a.6.6 0 0 0 .6.5l.15-.05a.6.6 0 0 0 .45-.75c-.9-3.15-1.9-6.4-2.95-9.6a.6.6 0 0 0-.8-.4.6.6 0 0 0-.4.8 256.85 256.85 0 0 1 2.95 9.5zm-406.1 7.3a.6.6 0 0 1-.6-.5c-.75-3.3-1.45-6.6-2.05-10a.6.6 0 0 1 .5-.75.6.6 0 0 1 .7.5l.83 4.04 1.22 5.96a.6.6 0 0 1-.45.75h-.15zm410.1 12.1a.65.65 0 0 0 .65.5l.1-.05a.6.6 0 0 0 .5-.7c-.5-3.4-1.1-6.7-1.85-10a.65.65 0 0 0-.75-.5.65.65 0 0 0-.45.75 239.38 239.38 0 0 1 1.8 10zM64.3 379.1a.6.6 0 0 1-.6-.45v-.5l-2.5-10a.7.7 0 0 1 .5-.75.7.7 0 0 1 .75.45h0v.002l2.45 9.697v.5a.65.65 0 0 1-.45.8l-.15.25zm407.15 12.05a.6.6 0 0 0 .6.6l.05-.05a.65.65 0 0 0 .6-.65c-.024-1.55-.136-3.125-.248-4.7h0c-.126-1.775-.252-3.55-.252-5.3-.013-.173-.094-.333-.225-.446s-.303-.168-.475-.154a.6.6 0 0 0-.55.7c.25 3.35.5 6.7.5 10zm-401.85 7.2a.65.65 0 0 1-.6-.4l-2.8-9.65a.6.6 0 0 1 .45-.75.6.6 0 0 1 .75.4l2.8 9.6a.65.65 0 0 1-.4.8h-.2zm400.77 13.255a.55.55 0 0 0 .429.195l.2-.05a.65.65 0 0 0 .5-.55l.24-2.107c.302-2.584.6-5.223.6-7.893a.7.7 0 0 0-.6-.65.6.6 0 0 0-.457.157c-.124.114-.194.275-.193.443-.2 3.4-.5 6.75-.85 10a.55.55 0 0 0 .121.455zM75.8 417.45a.7.7 0 0 1-.6-.45l-3.1-9.5a.65.65 0 0 1 1.2-.4l3.1 9.5a.6.6 0 0 1-.4.8l-.2.05zm391.15 13.1a.65.65 0 0 0 .5.75l.3.45a.7.7 0 0 0 .45-1c.7-3.45 1.35-6.75 1.85-10a.6.6 0 0 0-.5-.7.65.65 0 0 0-.75.5c-.5 3.4-1.15 6.7-1.85 10zM82.2 436.3a.65.65 0 0 1-.6-.4l-3.4-9.4c-.124-.318.032-.676.35-.8s.676.032.8.35l1.14 3.15 2.31 6.3a.65.65 0 0 1-.4.8h-.2zm379.6 13.65a.65.65 0 0 0 .4.8h.2a.65.65 0 0 0 .6-.4c1.05-3.15 2.05-6.4 2.95-9.6a.62.62 0 0 0-.45-.75.62.62 0 0 0-.75.45c-.9 3.15-1.85 6.35-2.95 9.5zm-372.2 5a.55.55 0 0 1-.55-.35l-3.75-9.3a.6.6 0 0 1 .35-.85.65.65 0 0 1 .8.4c1.2 3.1 2.45 6.2 3.75 9.25a.7.7 0 0 1-.35.85h-.25zm364.7 13.45a.65.65 0 0 0 .3.85.65.65 0 0 0 .85-.3c1.45-2.95 2.8-6.05 4.1-9.15a.65.65 0 0 0-.35-.8.6.6 0 0 0-.463-.017c-.15.056-.272.17-.337.317-1.3 3.1-2.65 6.15-4.1 9.1zm-356.6 4.95a.6.6 0 0 1-.55-.35l-4.1-9.2a.6.6 0 0 1 .3-.8.6.6 0 0 1 .85.35l3.173 7.158.877 1.942a.65.65 0 0 1-.3.85l-.25.05zm346.85 13.35h.3l.1.05a.7.7 0 0 0 .7-.25l5-8.6a.65.65 0 0 0-.541-1.098.65.65 0 0 0-.559.498c-1.5 2.9-3.2 5.75-5 8.55a.6.6 0 0 0 0 .85zm-338.15 4.7a.6.6 0 0 1-.55-.35c-1.55-3-3.05-6.05-4.45-9-.068-.146-.074-.312-.017-.463s.17-.272.317-.337a.6.6 0 0 1 .8 0l4.45 9a.65.65 0 0 1-.25.85l-.3.3zm326.3 11.45h.5c.098.028.202.028.3 0 2.15-2.6 4.2-5.3 6.15-7.95a.6.6 0 0 0 0-.85.6.6 0 0 0-.425-.176c-.16 0-.313.063-.425.176-1.595 2.37-3.256 4.41-4.957 6.494h0l-1.143 1.406a.65.65 0 0 0 0 .9zm-316.8 6.2a.65.65 0 0 1-.55-.3l-.377-.67-4.623-8.13a.65.65 0 0 1 1.1-.6c1.6 3 3.25 5.95 5 8.75a.65.65 0 0 1 0 .85l-.55.1zm303.3 8.6c.126.063.274.063.4 0 .117.08.26.115.4.1 2.202-2.064 4.362-4.423 6.402-6.652l.003-.003.545-.595a.65.65 0 0 0 0-.9.6.6 0 0 0-.425-.176c-.16 0-.313.063-.425.176-1.202 1.202-2.45 2.524-3.717 3.867l-.001.002-3.182 3.33a.55.55 0 0 0 0 .85zm-293 8.5a.7.7 0 0 1-.55-.3l-5.3-8.5a.65.65 0 0 1 0-.85c.112-.113.265-.176.425-.176a.6.6 0 0 1 .425.176l4.42 7.173.83 1.327a.65.65 0 0 1 0 .85l-.25.3zm278.05 4.75a.7.7 0 0 0 .5.25l.15-.05c.058-.04.108-.092.15-.15l7.6-6.55a.65.65 0 0 0 0-.9.6.6 0 0 0-.425-.176c-.16 0-.313.063-.425.176l-2.953 2.574-4.597 3.976a.6.6 0 0 0 0 .85zM137.5 542.8a.6.6 0 0 1-.5-.3 212.86 212.86 0 0 1-5.8-8.15.7.7 0 0 1 0-.9.65.65 0 0 1 .9 0l5.75 8.15a.6.6 0 0 1 0 .85c-.037.117-.106.22-.2.3l-.15.05zm250.85.5a.6.6 0 0 0 .5 0l.15-.05a.49.49 0 0 0 .096.038c.018.005.036.01.054.012 2.8-1.95 5.5-3.95 8.1-5.95a.6.6 0 0 0 0-.85.6.6 0 0 0-.425-.176c-.16 0-.313.063-.425.176-2.336 1.797-4.753 3.554-7.214 5.342l-.007.005-.004.003-.825.6a.6.6 0 0 0 0 .85zm-16.25 11.05a.55.55 0 0 1-.5-.3.6.6 0 0 1 0-.85l8.45-5.4c.112-.113.265-.176.425-.176a.6.6 0 0 1 .601.601.6.6 0 0 1-.176.425c-2.7 1.8-5.55 3.6-8.45 5.4l-.35.3zm-222.65 4.15c.16.062.34.062.5 0l.45.1a.65.65 0 0 0 0-.9c-1.118-1.438-2.25-2.776-3.383-4.114v-.001h-.001v-.001l-.003-.003h0l-.004-.004v-.001l-.001-.001h-.001v-.001l-.001-.001v-.001h-.001-.001 0l-.004-.004v-.001-.001h-.001v-.001l-.001-.001h0-.001-.001v-.001l-.002-.002L144.05 550c-.207-.262-.588-.307-.85-.1s-.307.588-.1.85a146.25 146.25 0 0 0 6.35 7.75zm205.5 5.9a.7.7 0 0 1-.55-.35.65.65 0 0 1 .25-.85c2.95-1.6 5.9-3.25 8.7-5a.65.65 0 0 1 .85 0 .6.6 0 0 1 0 .85l-8.75 5-.5.35zm-191.6 8.7a.55.55 0 0 0 .4 0v-.05a.5.5 0 0 0 .45 0 .55.55 0 0 0 0-.85c-2.296-2.146-4.643-4.643-6.99-7.14h0-.001-.001 0-.001v-.001h-.001v-.001h-.001v-.001l-.001-.001h-.001v-.001l-.001-.001h-.001v-.001l-.001-.001h-.001 0a.65.65 0 0 0-.9 0 .55.55 0 0 0 0 .85c2.367 2.5 4.717 4.9 7.05 7.2zm173.8.5a.6.6 0 0 1-.55-.35.6.6 0 0 1-.042-.493c.057-.163.182-.293.342-.357l8.9-4.5a.65.65 0 0 1 1.098.541.65.65 0 0 1-.498.559l-9 4.5-.25.1zm-18.7 8.1a.6.6 0 0 0 .55.4l.25-.05 9.1-4.2a.65.65 0 0 0 .246-1.198.65.65 0 0 0-.746.048l-6.454 2.994-2.646 1.206c-.147.065-.26.187-.317.337s-.05.317.017.463zM179 586.2a.55.55 0 0 1-.35 0c-1.544-1.188-3.017-2.4-4.545-3.68l-3.255-2.67a.62.62 0 1 1 .8-.95l.56.483c2.35 2.03 4.642 4 7.2 5.817a.6.6 0 0 1 0 .9.6.6 0 0 1-.5.05l.1.05zm121.15 3.45a.55.55 0 0 0 .55.35l.25-.05c3.1-1.25 6.15-2.55 9.25-3.9.147-.065.26-.187.317-.337a.6.6 0 0 0-.017-.463.7.7 0 0 0-.8-.35c-3.05 1.35-6.15 2.65-9.25 3.9a.65.65 0 0 0-.3.85zm-104.45 7.4h-.3c-2.634-1.408-5.268-2.98-7.865-4.532h-.002l-.783-.468a.65.65 0 0 1 0-.85c.112-.113.265-.176.425-.176a.6.6 0 0 1 .425.176 88.31 88.31 0 0 0 8.55 5 .65.65 0 0 1 0 .85.65.65 0 0 1-.45-.05v.05zm85.8.05a.6.6 0 0 0 .55.4l.25-.05 9.3-3.7a.65.65 0 0 0 .35-.8.65.65 0 0 0-.8-.35l-9.3 3.7a.55.55 0 0 0-.35.8zm-18.15 7.45a.6.6 0 0 1-.6-.45.65.65 0 0 1 .4-.8c1.436-.446 2.922-.99 4.408-1.537h.002v-.001h.002l.001-.001h.003.001.002.001.002l.001-.001h.003v-.001h.003v-.001h.003l.001-.001h.002l.001-.001h.003v-.001h.003v-.001h.003l.001-.001h.002.002l5-1.85a.6.6 0 0 1 .8.35c.083.15.09.33.022.486a.55.55 0 0 1-.372.314l-5 1.9c-1.5.55-3.05 1.1-4.55 1.55l-.15.05zm-58.7-3.15c3.086 1.318 6.24 2.47 9.45 3.45v-.05a.7.7 0 0 0 .8-.35.65.65 0 0 0-.45-.8 91.17 91.17 0 0 1-9.3-3.4.7.7 0 0 0-.85.35.65.65 0 0 0 .35.8zm39.05 6.95a.6.6 0 0 1-.6-.6.55.55 0 0 1 .55-.65 81.68 81.68 0 0 0 10-1.3.65.65 0 0 1 .75.5.6.6 0 0 1-.5.7 84.4 84.4 0 0 1-10 1.35h-.2zm-10 0a84.42 84.42 0 0 1-10-1.2.6.6 0 0 1-.42-.262c-.096-.143-.125-.32-.08-.488a.6.6 0 0 1 .7-.5c3.306.6 6.646 1 10 1.2.168-.001.33.07.443.193a.6.6 0 0 1 .157.457c-.01.193-.105.372-.26.488a.65.65 0 0 1-.541.112zM380 219.05c.085.043.18.06.27.05a.6.6 0 0 0 .629-.001.65.65 0 0 0 0-.9c-1.78-1.86-3.778-3.717-5.724-5.527h0l-1.526-1.423a.65.65 0 0 0-.9 0 .6.6 0 0 0 0 .85c1.485 1.486 3.102 3.015 4.734 4.56h.002l.007.006.015.015L380 219.05zm-45.75-39.15h.35a.6.6 0 0 0 .576-.575.6.6 0 0 0-.176-.425l-.002-.002h-.001l-8.147-5.948a.65.65 0 0 0-.7 1.05 303.58 303.58 0 0 1 8.1 5.9zm-50.3-32.5h-.3c-2.933-1.6-5.883-3.15-8.85-4.65a.65.65 0 0 1-.2-1 .6.6 0 0 1 .85-.25c2.9 1.45 5.9 3.05 8.85 4.65a.6.6 0 0 1 0 .85.55.55 0 0 1-.3.4h-.05zm-84.35-30.65c3.4.5 6.7 1.15 10 1.85a.6.6 0 0 0 .7-.45.65.65 0 0 0-.5-.75c-3.45-.75-6.8-1.35-10-1.9a.6.6 0 0 0-.7.5.65.65 0 0 0 .5.75zm-40.422-1.492c.114.104.268.156.422.142h-.05c3.3-.35 6.65-.65 10-.65.168.001.33-.07.443-.193a.6.6 0 0 0 .157-.457.65.65 0 0 0-.6-.6c-3.4.1-6.75.35-10 .7a.55.55 0 0 0-.55.65.55.55 0 0 0 .178.408z" fill="#d8d5db"/><path d="M469.6 395.6v1.65c-1.25 13.95-13.25 43.7-25 70l.75 25v3.7h-1.45c.35 6.2.8 16.95 1.15 29.3-43.25 26.15-96.85 42-152.65 55l-9.55 2.15a95.98 95.98 0 0 1-25.3 2.3 20.95 20.95 0 0 1-.55-6.4c1.182-28.19 4.12-56.277 8.8-84.1l-3.1-.45c11.35-38.3 17.05-93.55 20-141.5h0l.9-16.6c-7.25 7.4-12.25 12-12.25 12L256 322.4c-18.95 13.7-36.85 25.8-45.6 31.4-7.25 6.8-19.6 7.8-29.3-5-15.7-20.55-37.85-106.8-40.45-121.45-.38-.143-.734-.346-1.05-.6-3.6-5-16.2-32.25-15-37.55s7.1-16.75 13.95-18.3c-.8-2.45-1.7-5-3-8.55-2.9-7.9-6.35-15.9-1.15-15s17.1 30 19.15 35l.6-4.25c1.6-4.7 10-7.2 8.75 0-1.45 10 2.05 15 1.9 23.25V203c.02.3.02.6 0 .9a2.62 2.62 0 0 1 0 .65v.35c-1.217 6.145-3.376 12.064-6.4 17.55h0c5.45 17.8 30.45 64.35 45 90 8.9-7.4 20-16.2 31.5-25l-1-1.65s59.3-55.45 90-59.65c.45-2.15.75-4.5 1.05-6.95s.5-6.6.6-10c-22.55-.25-24.65-16.85-22.4-37.95l-3.55-.9 5.25-13.6v-1c-.576-.67-.91-1.516-.95-2.4 0-1.65.45-3.05 1.35-3.1a.55.55 0 0 1 .4 0c0-1.2.4-2.4.55-3.6.4-2.65.9-5 1.4-7.45-1.337-.263-2.713-.263-4.05 0l-.4-2.45c1.654-.295 3.346-.295 5 0a67.29 67.29 0 0 1 7.95-19c-7.2-.5-10.6-2.85-5.6-8.65 7.75-9 44.45-13.5 62.95-9.7 6.5 1.35 10.75 3.7 10.8 7.2v1a10.95 10.95 0 0 0 4.7-3.8l2.1 1.4c-1.207 1.707-2.778 3.125-4.6 4.15l-.75.4c19.8 12.9-8.2 82-8.3 82-.55 11.85-.9 23.55-.85 31.8 17.8 2.05 29.05 7.25 36.5 15.4 20 16.05 50.7 81.9 50.7 81.9l-12.55 3.3c8.95 28.7 16.55 57.5 18.75 67.15a17.06 17.06 0 0 1-.35 4.3z" fill="#d1cdd3"/><g fill="#4d8dff"><rect opacity=".3" x="376.9" y="284.75" width="334.65" height="261.25" rx="33.6" transform="rotate(180 376.9 284.75)"/><path opacity=".3" fill-rule="evenodd" d="M40 308.4h314.6a40 40 0 0 0 40-40.15V40c0-22.09-17.91-40-40-40H40C17.91 0 0 17.91 0 40v228.4c0 22.09 17.91 40 40 40zM1.1 40C1.128 18.528 18.528 1.128 40 1.1h314.6c21.472.028 38.872 17.428 38.9 38.9v228.25c-.028 21.472-17.428 38.872-38.9 38.9H40c-21.472-.028-38.872-17.428-38.9-38.9V40z"/></g><g fill="#4d8dff" opacity=".3"><rect x="125.9" y="100.9" width="55.9" height="43.65" rx="5.6" transform="rotate(180 125.9 100.9)"/><rect x="200.3" y="100.9" width="55.9" height="43.65" rx="5.6" transform="rotate(180 200.3 100.9)"/><rect x="274.75" y="100.9" width="55.9" height="43.65" rx="5.6" transform="rotate(180 274.75 100.9)"/><rect x="349.2" y="100.9" width="55.9" height="43.65" rx="5.6" transform="rotate(180 349.2 100.9)"/></g><g fill="#4d8dff" opacity=".3"><rect x="125.9" y="175.95" width="55.9" height="43.65" rx="5.6" transform="rotate(180 125.9 175.95)"/><rect x="200.3" y="175.95" width="55.9" height="43.65" rx="5.6" transform="rotate(180 200.3 175.95)"/><rect x="274.75" y="175.95" width="55.9" height="43.65" rx="5.6" transform="rotate(180 274.75 175.95)"/><rect x="349.2" y="175.95" width="55.9" height="43.65" rx="5.6" transform="rotate(180 349.2 175.95)"/></g><g fill="#4d8dff" opacity=".3"><rect x="125.9" y="250.95" width="55.9" height="43.65" rx="5.6" transform="rotate(180 125.9 250.95)"/><rect x="200.3" y="250.95" width="55.9" height="43.65" rx="5.6" transform="rotate(180 200.3 250.95)"/><rect x="274.75" y="250.95" width="55.9" height="43.65" rx="5.6" transform="rotate(180 274.75 250.95)"/><rect x="349.2" y="250.95" width="55.9" height="43.65" rx="5.6" transform="rotate(180 349.2 250.95)"/></g><rect x="281.85" y="93.8" width="55.9" height="43.65" rx="5.6" transform="rotate(180 281.85 93.8)" fill="#4d8dff"/><rect x="281.85" y="243.85" width="55.9" height="43.65" rx="5.6" transform="rotate(180 281.85 243.85)" fill="#ff4e4a"/><rect x="132.95" y="168.85" width="55.9" height="43.65" rx="5.6" transform="rotate(180 132.95 168.85)" fill="#ffc84d"/><path d="M415.95 148.6c-1.7 10.9-5 70-3.65 83.5s-65 17.6-56.15 2.55 2.55-65 2.55-65l57.25-21.05z" fill="#ffad69"/><path d="M411.35 150.3l-52.65 19.25c1.972 16.473 2.44 33.092 1.4 49.65 21.7-8.95 16.9-27.15 16.9-36.95 0-8.9 34.4-30.25 34.35-31.95zm-69.4 2.25l-8.2 17.5 10 4.05-1.8-21.55z" fill="#d88344"/><path d="M341.8 146.75c-5 33.65-13.2 67.2 27.6 61.65s47.1-57.75 47-67.65c-.65-52.6-65-60.1-74.6 6z" fill="#ffad69"/><path d="M421.35 109.95a15.55 15.55 0 0 0 5.35-4.55l-2.1-1.4c-1.276 1.712-3.01 3.03-5 3.8.027-.35.027-.7 0-1.05 0-13.6-63.3-9.7-73.75 2.45-6.2 7.2.4 9.1 11.1 8.75a5 5 0 0 0-1.7 2.4c-7.05 34.55 26.25 68.55 30 71.45h27.2s28.5-69.15 8.9-81.85z" fill="#232323"/><path d="M505.35 391.35c-3.6-16.05-22.35-85.5-37.25-118.8l-38.05 8.1s24.55 82.1 37.6 112.75c-3.05 16.5-18.45 93.25-27.95 114.7-4.2 10 11.7 13.85 15.55 9.05s47.55-92.6 50-120v-1.65c.25-1.37.283-2.77.1-4.15h0z" fill="#ffad69"/><path d="M448.2 238.7c20 15.65 50.95 82.2 50.95 82.2l-65.5 17s-38.1-140.4 14.55-99.2z" fill="#e5aa33"/><path d="M479.6 500.2c-10.676 9.414-22.23 17.786-34.5 25-43.25 26.15-96.85 42-152.65 55-.05-.65-.05-1.3 0-1.95 1.8-30.95 5-66.3 10-88.75l176.85 3.55c0 1.7.3 4.1.3 7.15z" fill="#232323"/><path d="M400.3 222.75c39.25 1.3 52.55 14.55 59.3 37.5 7.7 26 21.25 183.25 21.25 235.75 0 0-117.55 8.35-182.65-2.35 20.4-68.95 22.6-192.9 23.05-230 .3-27.55 29.25-42.55 79.05-40.9z" fill="#ffc84d"/><path fill-rule="evenodd" d="M405.15 249.75a3.7 3.7 0 0 0 3 1.5l.6-.2a3.75 3.75 0 0 0 3-2.3l5.7-14.2a3.8 3.8 0 0 0-3.5-5H397.6a3.75 3.75 0 0 0-3 6l10.55 14.2zm-8.8-17a1.25 1.25 0 0 1 1.15-.7h16.3a1.25 1.25 0 0 1 1.05.55 1.15 1.15 0 0 1 0 1.2l-5.7 14.15a1.2 1.2 0 0 1-1 .8 1.25 1.25 0 0 1-1.15-.5l-10.65-14.2a1.2 1.2 0 0 1 0-1.3z" fill="#fff"/><path d="M321.1 272.8c-.3 18.15-1 47.1-2.95 79.45 16.65-20 33-43.65 33.95-61.4 1.35-24.4-12.5-25.9-31-18.05z" fill="#e5aa33"/><path d="M343.25 281.25l-20-33.25s-55 39.65-84.55 64.2c-14.6-25.7-39.55-72.25-45-90h0c3.014-5.467 5.157-11.372 6.35-17.5a.69.69 0 0 0 0-.35v-.65c.022-.3.022-.6 0-.9v-1.7c0-8.05-3.35-13-1.9-23.2 1-7.15-7.15-4.7-8.75 0l-.65 4.2c-2.05-5-14.4-34.35-19.1-35s-1.75 7.25 1.15 15l3 8.55c-6.9 1.6-13 13.4-13.95 18.35s11.55 32.55 15 37.55a3.85 3.85 0 0 0 .95.85c2.55 14.7 25 100.9 40.4 121.5 9.7 12.75 22.1 11.75 29.35 5 17.8-11.35 72.5-48.95 97.7-72.65z" fill="#ffad69"/><path d="M377 248c-2 36.7-70 99.65-70 99.65l-37.9-62S380.7 181.25 377 248z" fill="#ffc84d"/><path d="M356 157.15c-1.5 8.8-3.7 17.55 4.55 16.9s10.35-14.35 10.5-16.95c.7-14-12.1-17.35-15.05.05z" fill="#ffad69"/></svg>