<svg width="32" height="32" viewBox="0 0 32 32" fill="none" xmlns="http://www.w3.org/2000/svg">
<circle opacity="0.1" cx="16" cy="16" r="16" fill="#0B0D17"/>
<path d="M10.2251 26.308C9.90359 27.6923 10.0284 29.6343 10.1683 30.8994C10.1683 30.8994 10.4983 31.0303 10.7128 31.1059C10.9261 31.181 11.2633 31.2852 11.2633 31.2852C11.9138 30.2225 12.8896 28.4808 13.2508 27.0909C13.4456 26.3421 14.2474 23.2881 14.2474 23.2881C14.7693 24.2827 16.2936 25.1261 17.9161 25.1261C22.7403 25.1261 26.2179 20.6879 26.2179 15.1737C26.2179 9.88822 21.9044 5.93219 16.3541 5.93219C9.44973 5.93219 5.78293 10.569 5.78293 15.6162C5.78293 17.961 7.03104 20.8846 9.02802 21.8149C9.33249 21.9549 9.49512 21.8925 9.56509 21.5994C9.61804 21.3781 9.88847 20.2908 10.0095 19.7859C10.0473 19.6232 10.0284 19.4852 9.89792 19.3264C9.23604 18.5246 8.70843 17.0496 8.70843 15.6748C8.70843 12.1461 11.3805 8.73091 15.9324 8.73091C19.8639 8.73091 22.6154 11.4086 22.6154 15.2398C22.6154 19.5684 20.4293 22.5676 17.5852 22.5676C16.0156 22.5676 14.8393 21.2703 15.2156 19.6762C15.6676 17.7738 16.5413 15.722 16.5413 14.3492C16.5413 13.12 15.8813 12.0951 14.5178 12.0951C12.9104 12.0951 11.6226 13.7554 11.6226 15.9811C11.6226 17.3975 12.101 18.3563 12.101 18.3563C12.101 18.3563 10.5144 25.0599 10.2251 26.308Z" fill="#969BAB"/>
</svg>
